<?xml version="1.0" encoding="UTF-8"?>
<svg id="Layer_2" data-name="Layer 2" xmlns="http://www.w3.org/2000/svg" viewBox="0 0 302.01 302.01">
  <defs>
    <style>
      .cls-1 {
        fill: #fff;
      }

      .cls-2 {
        fill: #ea0600;
      }

      .cls-3 {
        fill: #00c425;
      }

      .cls-4 {
        fill: #8605e2;
      }

      .cls-5 {
        fill: #00a4ff;
      }
    </style>
  </defs>
  <path class="cls-3" d="M159.41,0h63.41C266.52,0,302.01,35.49,302.01,79.19v63.41h-142.6V0h0Z"/>
  <path class="cls-2" d="M.17,159.41h142.6v142.6h-63.41C35.65,302.01.17,266.53.17,222.82v-63.41H.17Z"/>
  <rect class="cls-5" y="0" width="142.6" height="142.6" transform="translate(142.6 0) rotate(90)"/>
  <rect class="cls-4" x="159.41" y="159.41" width="142.6" height="142.6" transform="translate(461.42 0) rotate(90)"/>
  <path class="cls-1" d="M229.76,32.21c4.61,0,8.36-3.74,8.36-8.36,0,4.62,3.74,8.36,8.36,8.36-4.61,0-8.36,3.74-8.36,8.36,0-4.61-3.74-8.36-8.36-8.36ZM184.81,129.01c.99-1.02,1.8-2.16,2.43-3.38,2.28-4.39,4.9-8.6,8.34-12.15l26.53-27.36c2.82-2.91,6.92-4.19,10.9-3.41,2.27.45,4.35,1.54,6.01,3.15l8.57,8.49c2.66,2.58,6.41,3.69,10.04,2.98l.07-.62-52.29-51.09-.62.09c-.6,3.65.63,7.37,3.28,9.95l8.57,8.49c1.66,1.61,2.82,3.66,3.33,5.91.9,3.95-.25,8.09-3.07,10.99l-26.53,27.35c-3.45,3.56-7.58,6.3-11.91,8.71-1.2.67-2.32,1.51-3.31,2.53l-15.74,16.23v6.7h12.22l13.18-13.59ZM257.7,77.06c4.61,0,8.36,3.74,8.36,8.36,0-4.61,3.74-8.36,8.36-8.36-4.61,0-8.36-3.74-8.36-8.36,0,4.62-3.74,8.36-8.36,8.36ZM208.82,41.97c-.16-.15-.41-.15-.56,0l-.42.43-1.32,1.36c-.15.16-.15.41,0,.56l52.45,51.24c.16.15.4.15.56,0l1.32-1.36.42-.43c.15-.16.15-.41,0-.56l-.84-.82-50.85-49.69-.76-.73ZM180.16,79.47c5.94,0,10.76,4.82,10.76,10.76,0-5.94,4.82-10.76,10.76-10.76-5.94,0-10.76-4.82-10.76-10.76,0,5.94-4.82,10.76-10.76,10.76Z"/>
  <g>
    <polygon class="cls-1" points="113.26 186.5 114.15 187.8 117.43 185.53 116.54 184.23 113.26 186.5"/>
    <polygon class="cls-1" points="106.92 210.81 110.77 210.31 110.57 208.75 106.72 209.25 106.92 210.81"/>
    <rect class="cls-1" x="105.56" y="200.63" width="3.98" height="1.57" transform="translate(-66.2 53.27) rotate(-21.45)"/>
    <rect class="cls-1" x="106.91" y="204.53" width="4.01" height="1.57" transform="translate(-49.29 35.06) rotate(-14.95)"/>
    <polygon class="cls-1" points="111.33 195.72 114.92 193.82 114.19 192.43 110.6 194.32 111.33 195.72"/>
    <polygon class="cls-1" points="104.88 199.13 108.46 197.23 107.73 195.84 104.14 197.73 104.88 199.13"/>
    <polygon class="cls-1" points="107.36 190.58 108.25 191.87 111.53 189.61 110.64 188.31 107.36 190.58"/>
    <rect class="cls-1" x="99.95" y="206.39" width="4" height="1.57" transform="translate(-50.07 33.38) rotate(-14.98)"/>
    <rect class="cls-1" x="98.89" y="203.25" width="3.98" height="1.57" transform="translate(-67.55 50.94) rotate(-21.42)"/>
    <rect class="cls-1" x="112.23" y="198.01" width="3.98" height="1.57" transform="translate(-64.85 55.62) rotate(-21.48)"/>
    <polygon class="cls-1" points="101.46 194.65 102.35 195.95 105.63 193.68 104.74 192.39 101.46 194.65"/>
    <rect class="cls-1" x="99.87" y="209.9" width="3.89" height="1.57" transform="translate(-26.31 14.88) rotate(-7.41)"/>
    <polygon class="cls-1" points="94.95 212.38 96.9 212.12 96.7 210.56 94.75 210.82 94.95 212.38"/>
    <polygon class="cls-1" points="96.72 207.76 94.81 208.27 95.22 209.79 97.12 209.28 96.72 207.76"/>
    <rect class="cls-1" x="113.74" y="208.09" width="3.89" height="1.57" transform="translate(-26.12 16.77) rotate(-7.45)"/>
    <polygon class="cls-1" points="93.84 201.84 92.95 200.54 91.33 201.66 92.22 202.96 93.84 201.84"/>
    <path class="cls-1" d="M88.25,203.48l-2.89.96,3.07,9.29,2.89-.96c.68-.23,1.05-.96.83-1.64l-2.26-6.82c-.23-.68-.96-1.05-1.64-.83Z"/>
    <rect class="cls-1" x="93.33" y="203.03" width="1.97" height="1.57" transform="translate(-84.07 67.38) rotate(-27.76)"/>
    <rect class="cls-1" x="113.87" y="202.67" width="4" height="1.57" transform="translate(-48.64 36.85) rotate(-14.98)"/>
    <polygon class="cls-1" points="98.84 196.47 95.57 198.73 96.46 200.03 99.73 197.76 98.84 196.47"/>
    <polygon class="cls-1" points="122.43 180.16 119.16 182.42 120.05 183.72 123.32 181.45 122.43 180.16"/>
    <polygon class="cls-1" points="117.79 192.31 121.37 190.41 120.64 189.02 117.05 190.91 117.79 192.31"/>
    <polygon class="cls-1" points="102 200.64 101.27 199.25 97.69 201.14 98.42 202.53 102 200.64"/>
    <polygon class="cls-1" points="96.35 206.66 95.78 205.2 93.95 205.92 94.52 207.38 96.35 206.66"/>
    <polygon class="cls-1" points="142.77 188.42 142.77 187.59 142.47 186.84 138.77 188.3 139.34 189.77 142.77 188.42"/>
    <polygon class="cls-1" points="142.77 166.15 142.77 166.1 142.74 166.12 142.77 166.15"/>
    <polygon class="cls-1" points="140.12 167.93 136.84 170.19 137.73 171.49 141.01 169.22 140.12 167.93"/>
    <rect class="cls-1" x="134.54" y="205.36" width="3.89" height="1.57" transform="translate(-25.59 19.45) rotate(-7.45)"/>
    <polygon class="cls-1" points="137.15 182.08 140.74 180.18 140.01 178.79 136.42 180.68 137.15 182.08"/>
    <path class="cls-1" d="M123.26,302.01c-.04-.62-.02-1.24-.23-1.86l-5.25-15.85c-3.82-11.55-13.37-20.06-24.92-22.75-1.69-.39-4.84-.76-7.91-1.05-5.04-.48-9.25-4.05-10.56-8.95l-1.17-5.52,1.09-.36c.75-.25,1.16-1.06.91-1.81l-3.04-9.19c-.25-.75-1.06-1.16-1.81-.91l-12.14,4.02-5.2,1.72c-.75.25-1.16,1.06-.91,1.81l3.04,9.19c.25.75,1.06,1.16,1.81.91l.53-.18c2.44,7.36-5.36,21.47-.79,45.06,9.62,3.64,20,5.72,30.89,5.72h35.66Z"/>
    <polygon class="cls-1" points="142.77 204.53 141.39 204.71 141.59 206.27 142.77 206.12 142.77 204.53"/>
    <polygon class="cls-1" points="141.58 195.77 141.99 197.29 142.77 197.08 142.77 195.45 141.58 195.77"/>
    <path class="cls-1" d="M51.55,175.74c4.61,0,8.36,3.74,8.36,8.36,0-4.61,3.74-8.36,8.36-8.36-4.61,0-8.36-3.74-8.36-8.36,0,4.62-3.74,8.36-8.36,8.36Z"/>
    <rect class="cls-1" x="134.75" y="197.09" width="4" height="1.57" transform="translate(-46.49 42.06) rotate(-14.98)"/>
    <path class="cls-1" d="M39.58,221.88c4.94-.55,9.6,2.43,11.16,7.15l2.45,7.41,15.74-5.21c-.25-.74-.3-1.45-.35-2.15,1.86-.62,3.6-1.56,5.17-2.96,4.95,6.87,10.66,9.1,14.69,10.61.36.14.73-.36.42-.6-4.92-3.81-11.54-13.7-10.81-18.72,2.32-1.11,4.92-2.05,7.64-2.79l-3.07-9.29-30.92,5.19c-4.68.84-8.76,3.67-11.2,7.75l-1.7,2.85c-.47.68.09.87.78.76Z"/>
    <polygon class="cls-1" points="134.22 172 130.94 174.27 131.84 175.57 135.11 173.3 134.22 172"/>
    <polygon class="cls-1" points="127.1 185.61 123.51 187.51 124.24 188.9 127.83 187 127.1 185.61"/>
    <polygon class="cls-1" points="128.32 176.08 125.05 178.35 125.94 179.64 129.21 177.38 128.32 176.08"/>
    <polygon class="cls-1" points="120.79 208.99 124.64 208.49 124.44 206.93 120.59 207.43 120.79 208.99"/>
    <rect class="cls-1" x="120.83" y="200.81" width="4.01" height="1.57" transform="translate(-47.86 38.53) rotate(-14.95)"/>
    <rect class="cls-1" x="118.91" y="195.38" width="3.98" height="1.57" transform="translate(-63.3 57.71) rotate(-21.42)"/>
    <rect class="cls-1" x="130.1" y="183.06" width="4.06" height="1.57" transform="translate(-70.51 82.88) rotate(-27.81)"/>
    <path class="cls-1" d="M110.64,253.82c0-4.62,3.74-8.36,8.36-8.36-4.61,0-8.36-3.74-8.36-8.36,0,4.61-3.74,8.36-8.36,8.36,4.61,0,8.36,3.74,8.36,8.36Z"/>
    <polygon class="cls-1" points="136.38 190.93 135.8 189.46 132.09 190.92 132.67 192.39 136.38 190.93"/>
    <rect class="cls-1" x="127.79" y="198.95" width="4" height="1.57" transform="translate(-47.2 40.32) rotate(-14.98)"/>
    <rect class="cls-1" x="127.6" y="206.27" width="3.89" height="1.57" transform="translate(-25.77 18.56) rotate(-7.45)"/>
    <rect class="cls-1" x="125.58" y="192.76" width="3.98" height="1.57" transform="translate(-61.87 59.95) rotate(-21.42)"/>
  </g>
  <g>
    <path class="cls-1" d="M112.13,16.37h0c0,8.41-6.82,15.22-15.22,15.22h0c8.41,0,15.22,6.82,15.22,15.22h0c0-8.41,6.82-15.22,15.22-15.22h0c-8.41,0-15.22-6.82-15.22-15.22Z"/>
    <path class="cls-1" d="M120.48,82.57h0c0,4.61-3.74,8.36-8.36,8.36h0c4.61,0,8.36,3.74,8.36,8.36h0c0-4.61,3.74-8.36,8.36-8.36h0c-4.61,0-8.36-3.74-8.36-8.36Z"/>
    <path class="cls-1" d="M87.73,54.59h0c0,4.61-3.74,8.36-8.36,8.36h0c4.61,0,8.36,3.74,8.36,8.36h0c0-4.61,3.74-8.36,8.36-8.36h0c-4.61,0-8.36-3.74-8.36-8.36Z"/>
    <g>
      <g>
        <path class="cls-1" d="M45.41,72.25c-6.75,1.91-12.92,4.15-17.38,6.31-2.93,1.42-5,2.74-6.27,4.02l-.15-11.16c.2-8.4,7.86-7.06,10.06-10.02,1.56-2.11.99-4.04,1.14-5.16.15-1.13.76-2.5,2.2-2.91l2.08-.59,2.63-.74,2.63-.74,2.08-.59c1.45-.41,2.68.45,3.4,1.33.72.88,1.24,2.83,3.67,3.8,3.42,1.37,9.24-3.79,13.82,3.27l5.8,9.72c-6.08-1.63-19.29,1.66-25.7,3.47Z"/>
        <path class="cls-1" d="M46.26,75.26c15.77-4.46,23.94-4.27,24.91-3.18,5.46,10.31,10.46,19.12,24.58,33.45l-11.46,3.25c-8.3-9.43-13.52-18.79-17.6-26.79,2.67,8.37,6.08,17.83,12.6,28.2l-21.4,6.07-6.03,1.71-5.64-18.48,3.09,19.21-14.61,4.14c.56-9.13-.15-17.09-1.61-23.98.36,6.89.77,15.44-.74,24.65l-12.34,3.5c4.51-19.65,4.14-29.78,3.37-41.44.33-1.47,7.19-5.87,22.87-10.3Z"/>
      </g>
      <polygon class="cls-1" points="43.6 47.6 34.02 50.32 19.77 0 30.1 0 43.6 47.6"/>
    </g>
  </g>
  <g>
    <g>
      <path class="cls-1" d="M267.04,262.2c-7.66,0-13.89,6.23-13.89,13.89,0,4.37,2.07,8.23,5.23,10.77,2.38,1.92,5.37,3.12,8.66,3.12,7.66,0,13.89-6.23,13.89-13.89,0-3.29-1.2-6.28-3.12-8.66-2.55-3.16-6.4-5.23-10.77-5.23ZM267.84,283.41c-.28.03-.52.16-.8.16-4.13,0-7.48-3.35-7.48-7.48s3.35-7.48,7.48-7.48c3.57,0,6.42,2.56,7.16,5.91.12.52.32,1.01.32,1.57,0,3.84-2.95,6.9-6.68,7.32Z"/>
      <path class="cls-1" d="M274.36,185.97h-21.92c-7.38,0-14.3,3.93-18.07,10.26l-48.28,80.92-16.66,1.65-3.42,4.9.84,1.88h29.5c.8,0,1.44-.65,1.44-1.44v-1.86c0-3.05-2.41-5.5-5.42-5.66l46.39-77.76c2.85-4.78,8.09-7.76,13.66-7.76h21.92c8.77,0,15.91,7.14,15.91,15.91,0,7.59-5.35,13.93-12.46,15.51v-7.16c0-3.69-2.99-6.68-6.68-6.68h-3.43c-21.84,0-39.54,17.7-39.54,39.54v31.96c0,3.69,2.99,6.68,6.68,6.68h19.87c-2.53-2.89-4.12-6.63-4.12-10.77,0-9.07,7.38-16.45,16.45-16.45,4.14,0,7.88,1.59,10.77,4.11v-36.05c9.96-1.66,17.59-10.27,17.59-20.69,0-11.6-9.44-21.04-21.04-21.04Z"/>
    </g>
    <path class="cls-1" d="M184.45,200.27h0c0,8.41-6.82,15.22-15.22,15.22h0c8.41,0,15.22,6.82,15.22,15.22h0c0-8.41,6.82-15.22,15.22-15.22h0c-8.41,0-15.22-6.82-15.22-15.22Z"/>
    <path class="cls-1" d="M217.3,171.45h0c0,4.61-3.74,8.36-8.36,8.36h0c4.61,0,8.36,3.74,8.36,8.36h0c0-4.61,3.74-8.36,8.36-8.36h0c-4.61,0-8.36-3.74-8.36-8.36Z"/>
  </g>
</svg>