<?xml version="1.0" encoding="UTF-8"?>
<svg xmlns="http://www.w3.org/2000/svg" viewBox="0 0 1050.68 302.01">
  <defs>
    <style>
      .cls-1 {
        fill: #fff;
      }

      .cls-2 {
        fill: #ea0600;
      }

      .cls-3 {
        fill: #00c425;
      }

      .cls-4 {
        fill: #8605e2;
      }

      .cls-5 {
        fill: #00a4ff;
      }
    </style>
  </defs>
  <g id="Layer_2" data-name="Layer 2">
    <g>
      <path class="cls-3" d="M159.41,0h63.41C266.52,0,302.01,35.49,302.01,79.19v63.41h-142.6V0h0Z"/>
      <path class="cls-2" d="M.17,159.41h142.6v142.6h-63.41C35.65,302.01.17,266.53.17,222.82v-63.41H.17Z"/>
      <rect class="cls-5" y="0" width="142.6" height="142.6" transform="translate(142.6 0) rotate(90)"/>
      <rect class="cls-4" x="159.41" y="159.41" width="142.6" height="142.6" transform="translate(461.42 0) rotate(90)"/>
      <path class="cls-1" d="M229.76,32.21c4.61,0,8.36-3.74,8.36-8.36,0,4.62,3.74,8.36,8.36,8.36-4.61,0-8.36,3.74-8.36,8.36,0-4.61-3.74-8.36-8.36-8.36ZM184.81,129.01c.99-1.02,1.8-2.16,2.43-3.38,2.28-4.39,4.9-8.6,8.34-12.15l26.53-27.36c2.82-2.91,6.92-4.19,10.9-3.41,2.27.45,4.35,1.54,6.01,3.15l8.57,8.49c2.66,2.58,6.41,3.69,10.04,2.98l.07-.62-52.29-51.09-.62.09c-.6,3.65.63,7.37,3.28,9.95l8.57,8.49c1.66,1.61,2.82,3.66,3.33,5.91.9,3.95-.25,8.09-3.07,10.99l-26.53,27.35c-3.45,3.56-7.58,6.3-11.91,8.71-1.2.67-2.32,1.51-3.31,2.53l-15.74,16.23v6.7h12.22l13.18-13.59ZM257.7,77.06c4.61,0,8.36,3.74,8.36,8.36,0-4.61,3.74-8.36,8.36-8.36-4.61,0-8.36-3.74-8.36-8.36,0,4.62-3.74,8.36-8.36,8.36ZM208.82,41.97c-.16-.15-.41-.15-.56,0l-.42.43-1.32,1.36c-.15.16-.15.41,0,.56l52.45,51.24c.16.15.4.15.56,0l1.32-1.36.42-.43c.15-.16.15-.41,0-.56l-.84-.82-50.85-49.69-.76-.73ZM180.16,79.47c5.94,0,10.76,4.82,10.76,10.76,0-5.94,4.82-10.76,10.76-10.76-5.94,0-10.76-4.82-10.76-10.76,0,5.94-4.82,10.76-10.76,10.76Z"/>
      <g>
        <polygon class="cls-1" points="113.26 186.5 114.15 187.8 117.43 185.53 116.54 184.23 113.26 186.5"/>
        <polygon class="cls-1" points="106.92 210.81 110.77 210.31 110.57 208.75 106.72 209.25 106.92 210.81"/>
        <rect class="cls-1" x="105.56" y="200.63" width="3.98" height="1.57" transform="translate(-66.2 53.27) rotate(-21.45)"/>
        <rect class="cls-1" x="106.91" y="204.53" width="4.01" height="1.57" transform="translate(-49.29 35.06) rotate(-14.95)"/>
        <polygon class="cls-1" points="111.33 195.72 114.92 193.82 114.19 192.43 110.6 194.32 111.33 195.72"/>
        <polygon class="cls-1" points="104.88 199.13 108.46 197.23 107.73 195.84 104.14 197.73 104.88 199.13"/>
        <polygon class="cls-1" points="107.36 190.58 108.25 191.87 111.53 189.61 110.64 188.31 107.36 190.58"/>
        <rect class="cls-1" x="99.95" y="206.39" width="4" height="1.57" transform="translate(-50.07 33.38) rotate(-14.98)"/>
        <rect class="cls-1" x="98.89" y="203.25" width="3.98" height="1.57" transform="translate(-67.55 50.94) rotate(-21.42)"/>
        <rect class="cls-1" x="112.23" y="198.01" width="3.98" height="1.57" transform="translate(-64.85 55.62) rotate(-21.48)"/>
        <polygon class="cls-1" points="101.46 194.65 102.35 195.95 105.63 193.68 104.74 192.39 101.46 194.65"/>
        <rect class="cls-1" x="99.87" y="209.9" width="3.89" height="1.57" transform="translate(-26.31 14.88) rotate(-7.41)"/>
        <polygon class="cls-1" points="94.95 212.38 96.9 212.12 96.7 210.56 94.75 210.82 94.95 212.38"/>
        <polygon class="cls-1" points="96.72 207.76 94.81 208.27 95.22 209.79 97.12 209.28 96.72 207.76"/>
        <rect class="cls-1" x="113.74" y="208.09" width="3.89" height="1.57" transform="translate(-26.12 16.77) rotate(-7.45)"/>
        <polygon class="cls-1" points="93.84 201.84 92.95 200.54 91.33 201.66 92.22 202.96 93.84 201.84"/>
        <path class="cls-1" d="M88.25,203.48l-2.89.96,3.07,9.29,2.89-.96c.68-.23,1.05-.96.83-1.64l-2.26-6.82c-.23-.68-.96-1.05-1.64-.83Z"/>
        <rect class="cls-1" x="93.33" y="203.03" width="1.97" height="1.57" transform="translate(-84.07 67.38) rotate(-27.76)"/>
        <rect class="cls-1" x="113.87" y="202.67" width="4" height="1.57" transform="translate(-48.64 36.85) rotate(-14.98)"/>
        <polygon class="cls-1" points="98.84 196.47 95.57 198.73 96.46 200.03 99.73 197.76 98.84 196.47"/>
        <polygon class="cls-1" points="122.43 180.16 119.16 182.42 120.05 183.72 123.32 181.45 122.43 180.16"/>
        <polygon class="cls-1" points="117.79 192.31 121.37 190.41 120.64 189.02 117.05 190.91 117.79 192.31"/>
        <polygon class="cls-1" points="102 200.64 101.27 199.25 97.69 201.14 98.42 202.53 102 200.64"/>
        <polygon class="cls-1" points="96.35 206.66 95.78 205.2 93.95 205.92 94.52 207.38 96.35 206.66"/>
        <polygon class="cls-1" points="142.77 188.42 142.77 187.59 142.47 186.84 138.77 188.3 139.34 189.77 142.77 188.42"/>
        <polygon class="cls-1" points="142.77 166.15 142.77 166.1 142.74 166.12 142.77 166.15"/>
        <polygon class="cls-1" points="140.12 167.93 136.84 170.19 137.73 171.49 141.01 169.22 140.12 167.93"/>
        <rect class="cls-1" x="134.54" y="205.36" width="3.89" height="1.57" transform="translate(-25.59 19.45) rotate(-7.45)"/>
        <polygon class="cls-1" points="137.15 182.08 140.74 180.18 140.01 178.79 136.42 180.68 137.15 182.08"/>
        <path class="cls-1" d="M123.26,302.01c-.04-.62-.02-1.24-.23-1.86l-5.25-15.85c-3.82-11.55-13.37-20.06-24.92-22.75-1.69-.39-4.84-.76-7.91-1.05-5.04-.48-9.25-4.05-10.56-8.95l-1.17-5.52,1.09-.36c.75-.25,1.16-1.06.91-1.81l-3.04-9.19c-.25-.75-1.06-1.16-1.81-.91l-12.14,4.02-5.2,1.72c-.75.25-1.16,1.06-.91,1.81l3.04,9.19c.25.75,1.06,1.16,1.81.91l.53-.18c2.44,7.36-5.36,21.47-.79,45.06,9.62,3.64,20,5.72,30.89,5.72h35.66Z"/>
        <polygon class="cls-1" points="142.77 204.53 141.39 204.71 141.59 206.27 142.77 206.12 142.77 204.53"/>
        <polygon class="cls-1" points="141.58 195.77 141.99 197.29 142.77 197.08 142.77 195.45 141.58 195.77"/>
        <path class="cls-1" d="M51.55,175.74c4.61,0,8.36,3.74,8.36,8.36,0-4.61,3.74-8.36,8.36-8.36-4.61,0-8.36-3.74-8.36-8.36,0,4.62-3.74,8.36-8.36,8.36Z"/>
        <rect class="cls-1" x="134.75" y="197.09" width="4" height="1.57" transform="translate(-46.49 42.06) rotate(-14.98)"/>
        <path class="cls-1" d="M39.58,221.88c4.94-.55,9.6,2.43,11.16,7.15l2.45,7.41,15.74-5.21c-.25-.74-.3-1.45-.35-2.15,1.86-.62,3.6-1.56,5.17-2.96,4.95,6.87,10.66,9.1,14.69,10.61.36.14.73-.36.42-.6-4.92-3.81-11.54-13.7-10.81-18.72,2.32-1.11,4.92-2.05,7.64-2.79l-3.07-9.29-30.92,5.19c-4.68.84-8.76,3.67-11.2,7.75l-1.7,2.85c-.47.68.09.87.78.76Z"/>
        <polygon class="cls-1" points="134.22 172 130.94 174.27 131.84 175.57 135.11 173.3 134.22 172"/>
        <polygon class="cls-1" points="127.1 185.61 123.51 187.51 124.24 188.9 127.83 187 127.1 185.61"/>
        <polygon class="cls-1" points="128.32 176.08 125.05 178.35 125.94 179.64 129.21 177.38 128.32 176.08"/>
        <polygon class="cls-1" points="120.79 208.99 124.64 208.49 124.44 206.93 120.59 207.43 120.79 208.99"/>
        <rect class="cls-1" x="120.83" y="200.81" width="4.01" height="1.57" transform="translate(-47.86 38.53) rotate(-14.95)"/>
        <rect class="cls-1" x="118.91" y="195.38" width="3.98" height="1.57" transform="translate(-63.3 57.71) rotate(-21.42)"/>
        <rect class="cls-1" x="130.1" y="183.06" width="4.06" height="1.57" transform="translate(-70.51 82.88) rotate(-27.81)"/>
        <path class="cls-1" d="M110.64,253.82c0-4.62,3.74-8.36,8.36-8.36-4.61,0-8.36-3.74-8.36-8.36,0,4.61-3.74,8.36-8.36,8.36,4.61,0,8.36,3.74,8.36,8.36Z"/>
        <polygon class="cls-1" points="136.38 190.93 135.8 189.46 132.09 190.92 132.67 192.39 136.38 190.93"/>
        <rect class="cls-1" x="127.79" y="198.95" width="4" height="1.57" transform="translate(-47.2 40.32) rotate(-14.98)"/>
        <rect class="cls-1" x="127.6" y="206.27" width="3.89" height="1.57" transform="translate(-25.77 18.56) rotate(-7.45)"/>
        <rect class="cls-1" x="125.58" y="192.76" width="3.98" height="1.57" transform="translate(-61.87 59.95) rotate(-21.42)"/>
      </g>
      <g>
        <path class="cls-1" d="M112.13,16.37h0c0,8.41-6.82,15.22-15.22,15.22h0c8.41,0,15.22,6.82,15.22,15.22h0c0-8.41,6.82-15.22,15.22-15.22h0c-8.41,0-15.22-6.82-15.22-15.22Z"/>
        <path class="cls-1" d="M120.48,82.57h0c0,4.61-3.74,8.36-8.36,8.36h0c4.61,0,8.36,3.74,8.36,8.36h0c0-4.61,3.74-8.36,8.36-8.36h0c-4.61,0-8.36-3.74-8.36-8.36Z"/>
        <path class="cls-1" d="M87.73,54.59h0c0,4.61-3.74,8.36-8.36,8.36h0c4.61,0,8.36,3.74,8.36,8.36h0c0-4.61,3.74-8.36,8.36-8.36h0c-4.61,0-8.36-3.74-8.36-8.36Z"/>
        <g>
          <g>
            <path class="cls-1" d="M45.41,72.25c-6.75,1.91-12.92,4.15-17.38,6.31-2.93,1.42-5,2.74-6.27,4.02l-.15-11.16c.2-8.4,7.86-7.06,10.06-10.02,1.56-2.11.99-4.04,1.14-5.16.15-1.13.76-2.5,2.2-2.91l2.08-.59,2.63-.74,2.63-.74,2.08-.59c1.45-.41,2.68.45,3.4,1.33.72.88,1.24,2.83,3.67,3.8,3.42,1.37,9.24-3.79,13.82,3.27l5.8,9.72c-6.08-1.63-19.29,1.66-25.7,3.47Z"/>
            <path class="cls-1" d="M46.26,75.26c15.77-4.46,23.94-4.27,24.91-3.18,5.46,10.31,10.46,19.12,24.58,33.45l-11.46,3.25c-8.3-9.43-13.52-18.79-17.6-26.79,2.67,8.37,6.08,17.83,12.6,28.2l-21.4,6.07-6.03,1.71-5.64-18.48,3.09,19.21-14.61,4.14c.56-9.13-.15-17.09-1.61-23.98.36,6.89.77,15.44-.74,24.65l-12.34,3.5c4.51-19.65,4.14-29.78,3.37-41.44.33-1.47,7.19-5.87,22.87-10.3Z"/>
          </g>
          <polygon class="cls-1" points="43.6 47.6 34.02 50.32 19.77 0 30.1 0 43.6 47.6"/>
        </g>
      </g>
      <g>
        <g>
          <path class="cls-1" d="M267.04,262.2c-7.66,0-13.89,6.23-13.89,13.89,0,4.37,2.07,8.23,5.23,10.77,2.38,1.92,5.37,3.12,8.66,3.12,7.66,0,13.89-6.23,13.89-13.89,0-3.29-1.2-6.28-3.12-8.66-2.55-3.16-6.4-5.23-10.77-5.23ZM267.84,283.41c-.28.03-.52.16-.8.16-4.13,0-7.48-3.35-7.48-7.48s3.35-7.48,7.48-7.48c3.57,0,6.42,2.56,7.16,5.91.12.52.32,1.01.32,1.57,0,3.84-2.95,6.9-6.68,7.32Z"/>
          <path class="cls-1" d="M274.36,185.97h-21.92c-7.38,0-14.3,3.93-18.07,10.26l-48.28,80.92-16.66,1.65-3.42,4.9.84,1.88h29.5c.8,0,1.44-.65,1.44-1.44v-1.86c0-3.05-2.41-5.5-5.42-5.66l46.39-77.76c2.85-4.78,8.09-7.76,13.66-7.76h21.92c8.77,0,15.91,7.14,15.91,15.91,0,7.59-5.35,13.93-12.46,15.51v-7.16c0-3.69-2.99-6.68-6.68-6.68h-3.43c-21.84,0-39.54,17.7-39.54,39.54v31.96c0,3.69,2.99,6.68,6.68,6.68h19.87c-2.53-2.89-4.12-6.63-4.12-10.77,0-9.07,7.38-16.45,16.45-16.45,4.14,0,7.88,1.59,10.77,4.11v-36.05c9.96-1.66,17.59-10.27,17.59-20.69,0-11.6-9.44-21.04-21.04-21.04Z"/>
        </g>
        <path class="cls-1" d="M184.45,200.27h0c0,8.41-6.82,15.22-15.22,15.22h0c8.41,0,15.22,6.82,15.22,15.22h0c0-8.41,6.82-15.22,15.22-15.22h0c-8.41,0-15.22-6.82-15.22-15.22Z"/>
        <path class="cls-1" d="M217.3,171.45h0c0,4.61-3.74,8.36-8.36,8.36h0c4.61,0,8.36,3.74,8.36,8.36h0c0-4.61,3.74-8.36,8.36-8.36h0c-4.61,0-8.36-3.74-8.36-8.36Z"/>
      </g>
    </g>
  </g>
  <g id="Layer_3" data-name="Layer 3">
    <g>
      <g>
        <path class="cls-2" d="M392.72,20.04h14.21l31.45,90.94h-16.54l-7.69-22.67h-28.89l-7.57,22.67h-16.54l31.57-90.94ZM411.25,75.88l-11.42-35.74-11.88,35.74h23.3Z"/>
        <path class="cls-2" d="M445.84,17.48h15.61v71.99c0,2.48.54,4.4,1.63,5.76,1.09,1.37,2.64,2.05,4.66,2.05.93,0,1.96-.17,3.09-.51,1.12-.34,2.19-.77,3.2-1.28l2.1,13.07c-2.1,1.11-4.54,1.97-7.34,2.56-2.8.6-5.32.9-7.57.9-4.89,0-8.68-1.43-11.36-4.29-2.68-2.86-4.02-6.94-4.02-12.23V17.48Z"/>
        <path class="cls-2" d="M480.32,83.57v-15.5h35.3v15.5h-35.3Z"/>
        <path class="cls-2" d="M580.15,43.86c-.54-.6-1.53-1.41-2.97-2.43-1.44-1.02-3.19-2.03-5.24-3.01-2.06-.98-4.29-1.81-6.7-2.5-2.41-.68-4.85-1.02-7.34-1.02-4.43,0-7.73.9-9.9,2.69-2.18,1.79-3.26,4.31-3.26,7.56,0,1.88.41,3.44,1.22,4.68.82,1.24,2,2.33,3.55,3.27,1.55.94,3.51,1.79,5.88,2.56,2.37.77,5.11,1.58,8.21,2.43,4.04,1.2,7.71,2.48,11.01,3.84,3.3,1.37,6.1,3.07,8.39,5.12,2.29,2.05,4.06,4.51,5.3,7.37,1.24,2.86,1.86,6.38,1.86,10.57,0,4.87-.84,9.03-2.5,12.49-1.67,3.46-3.92,6.26-6.76,8.39-2.84,2.14-6.1,3.69-9.78,4.68-3.69.98-7.55,1.47-11.59,1.47-6.21,0-12.35-1.02-18.41-3.07-6.06-2.05-11.49-4.95-16.31-8.71l7.11-15.24c.7.77,1.96,1.77,3.79,3.01,1.82,1.24,3.98,2.48,6.47,3.71,2.48,1.24,5.24,2.29,8.27,3.14,3.03.85,6.13,1.28,9.32,1.28,8.85,0,13.28-3.12,13.28-9.35,0-1.96-.51-3.63-1.51-5-1.01-1.36-2.45-2.56-4.31-3.59-1.86-1.02-4.12-1.96-6.76-2.82-2.64-.85-5.59-1.79-8.85-2.82-3.96-1.19-7.4-2.5-10.31-3.91-2.91-1.41-5.34-3.07-7.28-5-1.94-1.92-3.4-4.14-4.37-6.66-.97-2.52-1.46-5.53-1.46-9.03,0-4.61.78-8.71,2.33-12.3,1.55-3.59,3.71-6.57,6.47-8.97,2.76-2.39,5.96-4.2,9.61-5.44,3.65-1.24,7.57-1.86,11.77-1.86,5.82,0,11.18,1,16.08,3.01,4.89,2.01,9.16,4.38,12.81,7.11l-7.11,14.35Z"/>
        <path class="cls-2" d="M657.5,110.98h-15.61v-37.66c0-5.29-.89-9.2-2.68-11.72-1.79-2.52-4.31-3.78-7.57-3.78-1.4,0-2.87.34-4.43,1.02-1.55.68-3.03,1.65-4.43,2.88-1.4,1.24-2.68,2.71-3.84,4.42-1.17,1.71-2.02,3.59-2.56,5.64v39.2h-15.61V17.48h15.61v38.81c2.25-4.35,5.3-7.71,9.14-10.05,3.84-2.35,8.1-3.52,12.76-3.52,3.96,0,7.18.75,9.67,2.24,2.48,1.5,4.43,3.48,5.82,5.96,1.4,2.48,2.37,5.3,2.91,8.45.54,3.16.82,6.4.82,9.73v41.89Z"/>
        <path class="cls-2" d="M687.79,112.26c-2.95,0-5.71-.53-8.27-1.6s-4.78-2.56-6.64-4.48-3.32-4.16-4.37-6.73c-1.05-2.56-1.57-5.38-1.57-8.45s.64-6.08,1.92-8.77,3.07-4.97,5.36-6.85c2.29-1.88,5.03-3.35,8.21-4.42,3.18-1.07,6.68-1.6,10.48-1.6,2.72,0,5.38.26,7.98.77,2.6.51,4.91,1.24,6.93,2.18v-3.84c0-4.44-1.15-7.86-3.44-10.25-2.29-2.39-5.69-3.59-10.19-3.59-3.26,0-6.45.64-9.55,1.92-3.11,1.28-6.29,3.16-9.55,5.64l-4.78-10.89c7.84-5.72,16.31-8.58,25.39-8.58s15.59,2.37,20.44,7.11c4.85,4.74,7.28,11.59,7.28,20.56v20.88c0,1.79.29,3.07.87,3.84s1.53,1.2,2.85,1.28v14.6c-2.64.6-4.93.9-6.87.9-2.95,0-5.22-.73-6.81-2.18-1.59-1.45-2.58-3.37-2.97-5.76l-.35-3.71c-2.72,3.93-6.02,6.92-9.9,8.97-3.88,2.05-8.04,3.07-12.46,3.07ZM692.21,99.71c2.64,0,5.14-.51,7.51-1.54,2.37-1.02,4.21-2.39,5.53-4.1,1.71-1.45,2.56-3.07,2.56-4.87v-7.69c-1.86-.77-3.88-1.39-6.06-1.86-2.18-.47-4.27-.7-6.29-.7-4.04,0-7.34,1-9.9,3.01-2.56,2.01-3.84,4.55-3.84,7.62,0,2.9,1.01,5.32,3.03,7.24,2.02,1.92,4.5,2.88,7.46,2.88Z"/>
        <path class="cls-2" d="M774.34,58.72c-4.74.09-8.97,1.09-12.7,3.01-3.73,1.92-6.41,4.8-8.04,8.65v40.6h-15.61V43.86h14.33v14.35c1.09-2.31,2.37-4.38,3.84-6.21,1.47-1.83,3.07-3.44,4.78-4.8,1.71-1.36,3.44-2.41,5.18-3.14,1.75-.72,3.44-1.09,5.07-1.09h1.92c.43,0,.83.04,1.22.13v15.63Z"/>
        <path class="cls-2" d="M803.11,112.26c-3.88,0-7.46-.92-10.72-2.75-3.26-1.83-6.08-4.33-8.45-7.49-2.37-3.16-4.21-6.85-5.53-11.08-1.32-4.23-1.98-8.77-1.98-13.64s.72-9.39,2.16-13.58c1.44-4.18,3.44-7.83,6-10.95,2.56-3.12,5.59-5.57,9.09-7.37,3.49-1.79,7.26-2.69,11.3-2.69,4.66,0,8.77,1.17,12.35,3.52,3.57,2.35,6.48,5.44,8.74,9.29v-11.66h13.63v73.78c0,1.88.31,3.18.93,3.91.62.72,1.71,1.13,3.26,1.22v14.6c-1.32.26-2.76.45-4.31.58-1.55.13-2.95.19-4.19.19-1.55,0-3.01-.3-4.37-.9-1.36-.6-2.54-1.41-3.55-2.43-1.01-1.02-1.83-2.24-2.45-3.65-.62-1.41-.93-2.97-.93-4.68v-27.28c-2.25,4.35-5.17,7.62-8.74,9.8-3.57,2.18-7.65,3.27-12.23,3.27ZM808.93,97.66c3.34,0,6.25-1.02,8.74-3.07,2.48-2.05,4.62-4.7,6.41-7.94v-15.88c-.47-1.88-1.22-3.63-2.27-5.25-1.05-1.62-2.27-3.05-3.67-4.29-1.4-1.24-2.91-2.2-4.54-2.88-1.63-.68-3.26-1.02-4.89-1.02-2.41,0-4.6.56-6.58,1.67-1.98,1.11-3.69,2.63-5.13,4.55-1.44,1.92-2.56,4.12-3.38,6.6-.82,2.48-1.22,5.04-1.22,7.69,0,2.82.41,5.42,1.22,7.81.82,2.39,1.94,4.48,3.38,6.28,1.44,1.79,3.16,3.2,5.18,4.23,2.02,1.02,4.27,1.54,6.76,1.54Z"/>
        <path class="cls-2" d="M878.36,64.87c0-5.55.91-11.04,2.74-16.46,1.82-5.42,4.48-10.27,7.98-14.54,3.49-4.27,7.76-7.73,12.81-10.38,5.05-2.65,10.79-3.97,17.24-3.97,7.61,0,14.19,1.84,19.74,5.51,5.55,3.67,9.69,8.45,12.41,14.35l-12.35,9.35c-1.09-2.56-2.41-4.72-3.96-6.47-1.55-1.75-3.22-3.14-5.01-4.16-1.79-1.02-3.65-1.77-5.59-2.24-1.94-.47-3.84-.7-5.71-.7-4.04,0-7.55.9-10.54,2.69-2.99,1.79-5.47,4.12-7.46,6.98-1.98,2.86-3.48,6.11-4.48,9.73-1.01,3.63-1.51,7.24-1.51,10.82,0,4.01.58,7.88,1.75,11.59,1.16,3.71,2.81,6.98,4.95,9.8,2.14,2.82,4.7,5.08,7.69,6.79,2.99,1.71,6.27,2.56,9.84,2.56,1.86,0,3.8-.26,5.82-.77,2.02-.51,3.94-1.32,5.77-2.43,1.82-1.11,3.51-2.54,5.07-4.29,1.55-1.75,2.8-3.86,3.73-6.34l13.16,8.33c-1.32,3.42-3.2,6.43-5.65,9.03-2.45,2.61-5.2,4.8-8.27,6.6-3.07,1.79-6.35,3.16-9.84,4.1-3.49.94-6.91,1.41-10.25,1.41-5.9,0-11.3-1.36-16.19-4.1-4.89-2.73-9.11-6.3-12.64-10.7-3.53-4.4-6.29-9.39-8.27-14.99-1.98-5.59-2.97-11.29-2.97-17.1Z"/>
        <path class="cls-2" d="M989.96,112.26c-4.97,0-9.44-.94-13.4-2.82-3.96-1.88-7.32-4.42-10.08-7.62-2.76-3.2-4.87-6.89-6.35-11.08-1.48-4.18-2.21-8.58-2.21-13.19s.74-9.14,2.21-13.32c1.47-4.18,3.59-7.88,6.35-11.08,2.76-3.2,6.12-5.74,10.08-7.62,3.96-1.88,8.43-2.82,13.4-2.82s9.42.94,13.34,2.82c3.92,1.88,7.26,4.42,10.02,7.62,2.76,3.2,4.87,6.9,6.35,11.08,1.47,4.19,2.21,8.63,2.21,13.32s-.74,9.01-2.21,13.19c-1.48,4.19-3.57,7.88-6.29,11.08-2.72,3.2-6.06,5.74-10.02,7.62-3.96,1.88-8.43,2.82-13.4,2.82ZM974,77.55c0,2.99.41,5.7,1.22,8.13s1.94,4.55,3.38,6.34c1.44,1.79,3.12,3.18,5.07,4.16,1.94.98,4.04,1.47,6.29,1.47s4.35-.49,6.29-1.47c1.94-.98,3.63-2.37,5.07-4.16,1.44-1.79,2.56-3.93,3.38-6.4.82-2.48,1.22-5.21,1.22-8.2s-.41-5.59-1.22-8.07c-.82-2.48-1.94-4.61-3.38-6.4-1.44-1.79-3.13-3.18-5.07-4.16-1.94-.98-4.04-1.47-6.29-1.47s-4.35.51-6.29,1.54c-1.94,1.02-3.63,2.43-5.07,4.23-1.44,1.79-2.56,3.93-3.38,6.4-.82,2.48-1.22,5.17-1.22,8.07Z"/>
        <path class="cls-2" d="M1032.01,110.98v-18.44h12.81v18.44h-12.81Z"/>
      </g>
      <g>
        <path class="cls-5" d="M387.33,231.31c-.42,2.29-.76,4.33-1.02,6.1-.26,1.77-.47,3.35-.63,4.72-.17,1.38-.27,2.6-.32,3.66-.05,1.06-.07,2.05-.07,2.97,0,3,.38,5.68,1.13,8.04.75,2.36,2.13,4.34,4.15,5.94,2.02,1.6,4.8,2.83,8.34,3.69,3.54.85,8.1,1.28,13.69,1.28,6,0,10.87-.44,14.6-1.31s6.67-2.07,8.83-3.6c2.16-1.52,3.67-3.28,4.54-5.29.87-2,1.44-4.13,1.72-6.38-3.19,1.04-6.57,1.56-10.13,1.56-2.96,0-5.95-.4-8.97-1.19-3.03-.79-5.76-2.04-8.2-3.75-2.44-1.71-4.43-3.94-5.98-6.69-1.55-2.75-2.32-6.09-2.32-10.01,0-3.5.63-6.96,1.9-10.38,1.27-3.42,3-6.48,5.21-9.19,2.2-2.71,4.77-4.9,7.71-6.57,2.93-1.67,6.09-2.5,9.46-2.5,3.66,0,7,.97,10.03,2.91,3.03,1.94,5.76,4.72,8.2,8.35,2.81,4.17,4.89,8.82,6.23,13.95,1.34,5.13,2.01,10.7,2.01,16.7,0,7.17-.95,13.3-2.85,18.39-1.9,5.09-4.74,9.25-8.51,12.48-3.78,3.23-8.51,5.6-14.21,7.1s-12.35,2.25-19.95,2.25-13.63-.68-18.93-2.03c-5.3-1.36-9.65-3.43-13.05-6.22-3.4-2.79-5.92-6.33-7.56-10.6-1.64-4.27-2.46-9.33-2.46-15.17,0-2.67.18-5.52.53-8.57.35-3.04.95-6.59,1.79-10.63h15.13ZM425.68,188.66h-16.54v-13.2h16.54v13.2ZM430.04,219.8c-1.27,0-2.44.37-3.52,1.09-1.08.73-2.01,1.64-2.78,2.72-.77,1.08-1.37,2.23-1.79,3.44-.42,1.21-.63,2.29-.63,3.25,0,1.21.32,2.22.95,3.03.63.81,1.5,1.49,2.6,2.03,1.1.54,2.36.93,3.76,1.16,1.41.23,2.89.34,4.43.34s3.03-.11,4.57-.34c1.55-.23,2.96-.57,4.22-1.03-.38-1.54-.91-3.22-1.62-5.03-.7-1.81-1.57-3.51-2.6-5.1-1.03-1.58-2.18-2.91-3.45-3.97-1.27-1.06-2.65-1.59-4.15-1.59ZM449.75,188.66h-16.54v-13.2h16.54v13.2Z"/>
        <path class="cls-5" d="M525.53,229.56c-1.27,0-2.35.01-3.24.03-.89.02-1.74.05-2.53.09.56,2.75,1.01,5.51,1.34,8.29.33,2.77.49,5.6.49,8.47,0,6.63-.9,12.34-2.71,17.14-1.81,4.79-4.25,8.75-7.32,11.85-3.07,3.11-6.63,5.4-10.66,6.88-4.04,1.48-8.3,2.22-12.81,2.22-2.25,0-4.52-.2-6.79-.59-2.28-.4-4.89-1.07-7.85-2.03v-16.95c3.24.83,5.95,1.43,8.13,1.78,2.18.35,4.19.53,6.02.53,3.8,0,6.9-.59,9.29-1.78,2.39-1.19,4.27-2.78,5.63-4.78,1.36-2,2.29-4.32,2.78-6.94.49-2.63.74-5.38.74-8.26,0-2.21-.13-4.39-.39-6.54-.26-2.15-.67-4.4-1.23-6.75-.56-2.36-1.28-4.87-2.15-7.54-.87-2.67-1.89-5.63-3.06-8.88,2.81-.33,5.56-.63,8.23-.88,2.67-.25,5.18-.45,7.53-.59,2.35-.15,4.5-.26,6.47-.34,1.97-.08,3.66-.12,5.07-.12.75,0,1.5.17,2.25.5.75.33,1.43.84,2.04,1.53.61.69,1.09,1.53,1.44,2.53.35,1,.53,2.17.53,3.5,0,1.46-.24,2.68-.7,3.66-.47.98-1.06,1.76-1.76,2.35-.7.58-1.49,1-2.36,1.25-.87.25-1.68.38-2.43.38Z"/>
        <path class="cls-5" d="M538.69,229.94c-1.92-.12-3.92-.22-5.98-.28-2.06-.06-4.46-.09-7.18-.09l.99-15.7c4.55,0,8.98.1,13.3.31,4.32.21,8.94.52,13.86.94v9.38c0,1.96.07,3.68.21,5.16.14,1.48.53,2.71,1.16,3.69.63.98,1.63,1.72,2.99,2.22,1.36.5,3.28.75,5.77.75,1.41,0,2.77-.07,4.08-.22,1.31-.15,2.47-.49,3.48-1.03,1.01-.54,1.83-1.37,2.46-2.47.63-1.1.95-2.64.95-4.6v-17.76h14.99v13.45c0,2.17.07,4.04.21,5.63.14,1.58.55,2.9,1.23,3.94.68,1.04,1.76,1.81,3.24,2.31,1.48.5,3.55.75,6.23.75,1.45,0,2.8-.06,4.05-.19,1.24-.12,2.32-.47,3.24-1.03s1.63-1.4,2.15-2.5c.52-1.1.77-2.64.77-4.6v-29.71h14.99v25.02c0,2.21.07,4.13.21,5.75.14,1.63.6,2.97,1.37,4.03.77,1.06,1.97,1.87,3.59,2.41,1.62.54,3.91.81,6.86.81v17.01h-3.24c-3.85,0-7.08-.48-9.71-1.44-2.63-.96-4.78-2.63-6.47-5-1.22,1.29-2.55,2.36-3.98,3.19-1.43.83-2.92,1.49-4.47,1.97-1.55.48-3.13.81-4.75,1s-3.2.28-4.75.28c-1.83,0-3.64-.12-5.42-.34-1.78-.23-3.47-.6-5.07-1.13-1.6-.52-3.07-1.24-4.43-2.16-1.36-.92-2.53-2.06-3.52-3.44h-.28c-1.27,1.33-2.69,2.46-4.26,3.38-1.57.92-3.19,1.65-4.86,2.19-1.67.54-3.32.93-4.96,1.16-1.64.23-3.19.34-4.64.34-4.78,0-8.73-.7-11.82-2.1-3.1-1.4-5.56-3.22-7.39-5.47-1.83-2.25-3.12-4.76-3.87-7.54-.75-2.77-1.2-5.54-1.34-8.29ZM578.66,196.41h-16.54v-13.2h16.54v13.2ZM590.76,178.9h-16.54v-13.2h16.54v13.2ZM602.8,196.41h-16.54v-13.2h16.54v13.2Z"/>
        <path class="cls-5" d="M646.49,253.33h-8.58c-1.64,0-2.87-.76-3.69-2.28-.82-1.52-1.23-3.6-1.23-6.22s.41-4.7,1.23-6.22c.82-1.52,2.05-2.28,3.69-2.28h9.29c1.88,0,3.55-.06,5.03-.19,1.48-.12,2.72-.46,3.73-1,1.01-.54,1.77-1.37,2.29-2.47.52-1.1.77-2.66.77-4.66v-71.05h14.99v71.49c0,5.09-.77,9.25-2.32,12.48-1.55,3.23-3.6,5.77-6.16,7.6-2.56,1.84-5.49,3.1-8.8,3.78-3.31.69-6.72,1.03-10.24,1.03Z"/>
        <path class="cls-5" d="M695.12,251.76v-94.82h14.99v94.82h-14.99Z"/>
        <path class="cls-5" d="M830.78,253.33c-2.35,0-4.61-.19-6.79-.56-2.18-.38-4.21-1.01-6.09-1.91-1.88-.9-3.58-2.13-5.1-3.69-1.52-1.56-2.8-3.53-3.83-5.91-1.83.38-3.65.67-5.45.88-1.81.21-3.6.31-5.38.31-3.61,0-7.04-.44-10.27-1.31-3.24-.88-6.08-2.19-8.51-3.94-2.44-1.75-4.37-3.95-5.81-6.6-1.43-2.65-2.15-5.76-2.15-9.35,0-4.17.97-7.92,2.92-11.26,1.95-3.34,4.55-6.25,7.81-8.76,3.26-2.5,7.04-4.57,11.33-6.19s8.81-2.81,13.55-3.56v-7.69h14.99v41.28c0,1.92.09,3.59.28,5,.19,1.42.69,2.59,1.51,3.5.82.92,2.04,1.61,3.66,2.06,1.62.46,3.83.69,6.65.69v17.01h-3.31ZM797.08,172.08h-16.54v-13.2h16.54v13.2ZM807,207.67c-2.86.5-5.56,1.08-8.09,1.75-2.53.67-4.76,1.48-6.68,2.44-1.92.96-3.45,2.09-4.57,3.38-1.13,1.29-1.69,2.81-1.69,4.57,0,1.38.34,2.48,1.02,3.31.68.83,1.58,1.49,2.71,1.97,1.13.48,2.42.79,3.87.94,1.45.15,2.96.22,4.5.22s3.05-.07,4.5-.22c1.45-.15,2.93-.39,4.43-.72v-17.64ZM821.14,172.08h-16.54v-13.2h16.54v13.2Z"/>
        <path class="cls-5" d="M834.09,183.34l61.99-34.84v17.95l-42.85,23.27c5.63,2.5,10.8,5.12,15.52,7.85,4.71,2.73,8.8,5.67,12.24,8.82,3.45,3.15,6.13,6.55,8.06,10.19,1.92,3.65,2.89,7.62,2.89,11.91,0,1.84-.19,3.71-.56,5.63-.38,1.92-1.06,3.79-2.04,5.63-.99,1.83-2.36,3.58-4.12,5.22-1.76,1.65-4.02,3.09-6.79,4.32-2.77,1.23-6.11,2.21-10.03,2.94-3.92.73-8.53,1.09-13.83,1.09h-20.48c-1.64,0-2.87-.76-3.69-2.28-.82-1.52-1.23-3.6-1.23-6.22s.41-4.7,1.23-6.22c.82-1.52,2.05-2.28,3.69-2.28h20.69c4.27,0,7.81-.08,10.63-.25,2.81-.17,5.07-.51,6.76-1.03,1.69-.52,2.89-1.25,3.59-2.19.7-.94,1.06-2.18,1.06-3.72,0-4.54-3.54-9.32-10.63-14.32-7.08-5-17.78-10.57-32.09-16.7v-14.76Z"/>
        <path class="cls-5" d="M950.34,229.56c-1.27,0-2.35.01-3.24.03-.89.02-1.74.05-2.53.09.56,2.75,1.01,5.51,1.34,8.29.33,2.77.49,5.6.49,8.47,0,6.63-.9,12.34-2.71,17.14-1.81,4.79-4.25,8.75-7.32,11.85-3.07,3.11-6.63,5.4-10.66,6.88-4.04,1.48-8.3,2.22-12.81,2.22-2.25,0-4.52-.2-6.79-.59-2.28-.4-4.89-1.07-7.85-2.03v-16.95c3.24.83,5.95,1.43,8.13,1.78,2.18.35,4.19.53,6.02.53,3.8,0,6.9-.59,9.29-1.78,2.39-1.19,4.27-2.78,5.63-4.78,1.36-2,2.29-4.32,2.78-6.94.49-2.63.74-5.38.74-8.26,0-2.21-.13-4.39-.39-6.54-.26-2.15-.67-4.4-1.23-6.75-.56-2.36-1.28-4.87-2.15-7.54-.87-2.67-1.89-5.63-3.06-8.88,2.81-.33,5.56-.63,8.23-.88,2.67-.25,5.18-.45,7.53-.59,2.35-.15,4.5-.26,6.47-.34,1.97-.08,3.66-.12,5.07-.12.75,0,1.5.17,2.25.5.75.33,1.43.84,2.04,1.53.61.69,1.09,1.53,1.44,2.53.35,1,.53,2.17.53,3.5,0,1.46-.24,2.68-.7,3.66-.47.98-1.06,1.76-1.76,2.35-.7.58-1.49,1-2.36,1.25-.87.25-1.68.38-2.43.38Z"/>
        <path class="cls-5" d="M963.5,229.94c-1.92-.12-3.92-.22-5.98-.28-2.06-.06-4.46-.09-7.18-.09l.99-15.7c4.55,0,8.98.1,13.3.31,4.32.21,8.94.52,13.86.94v9.38c0,1.96.07,3.68.21,5.16.14,1.48.53,2.71,1.16,3.69.63.98,1.63,1.72,2.99,2.22,1.36.5,3.28.75,5.77.75,1.41,0,2.77-.07,4.08-.22,1.31-.15,2.47-.49,3.48-1.03,1.01-.54,1.83-1.37,2.46-2.47.63-1.1.95-2.64.95-4.6v-17.76h14.99v13.45c0,2.17.07,4.04.21,5.63.14,1.58.55,2.9,1.23,3.94.68,1.04,1.76,1.81,3.24,2.31,1.48.5,3.55.75,6.23.75,1.45,0,2.8-.06,4.05-.19,1.24-.12,2.32-.47,3.24-1.03s1.63-1.4,2.15-2.5c.52-1.1.77-2.64.77-4.6v-29.71h14.99v30.52c0,4.92-.7,8.97-2.11,12.13-1.41,3.17-3.28,5.67-5.63,7.51-2.35,1.84-5.04,3.11-8.09,3.82-3.05.71-6.22,1.06-9.5,1.06-1.83,0-3.64-.12-5.42-.34-1.78-.23-3.47-.6-5.07-1.13-1.6-.52-3.07-1.24-4.43-2.16-1.36-.92-2.53-2.06-3.52-3.44h-.28c-1.27,1.33-2.69,2.46-4.26,3.38-1.57.92-3.19,1.65-4.86,2.19-1.67.54-3.32.93-4.96,1.16-1.64.23-3.19.34-4.64.34-4.78,0-8.73-.7-11.82-2.1-3.1-1.4-5.56-3.22-7.39-5.47-1.83-2.25-3.12-4.76-3.87-7.54-.75-2.77-1.2-5.54-1.34-8.29ZM1003.46,196.41h-16.54v-13.2h16.54v13.2ZM1015.57,178.9h-16.54v-13.2h16.54v13.2ZM1027.6,196.41h-16.54v-13.2h16.54v13.2Z"/>
      </g>
    </g>
  </g>
</svg>