<?xml version="1.0" encoding="UTF-8"?>
<svg id="Layer_1" data-name="Layer 1" xmlns="http://www.w3.org/2000/svg" viewBox="0 0 218.62 65.54">
  <defs>
    <style>
      .cls-1 {
        fill: #f8aead;
      }

      .cls-2 {
        fill: #ee3440;
      }

      .cls-3, .cls-4 {
        fill: #fdfeff;
      }

      .cls-5, .cls-6, .cls-7, .cls-8, .cls-4 {
        fill-rule: evenodd;
      }

      .cls-5, .cls-9 {
        fill: #2d66a8;
      }

      .cls-6, .cls-10 {
        fill: #74cabc;
      }

      .cls-11 {
        fill: none;
        stroke: #1a4e83;
        stroke-linecap: round;
        stroke-linejoin: round;
        stroke-width: 8.8px;
      }

      .cls-12, .cls-7 {
        fill: #e5e5e5;
      }

      .cls-13 {
        fill: #eb8d8d;
      }

      .cls-14 {
        fill: #e5ae3d;
      }

      .cls-8 {
        fill: #1a4e83;
      }

      .cls-15 {
        fill: #604f6d;
      }

      .cls-16 {
        fill: #5fa9dd;
      }

      .cls-17 {
        fill: #facb62;
      }
    </style>
  </defs>
  <g>
    <path class="cls-3" d="M4.02,31.22c0,.42-.32.74-.71.74-.42,0-.74-.32-.74-.74,0-.39.32-.71.74-.71.39,0,.71.32.71.71Z"/>
    <path class="cls-16" d="M39.85,2.09S25.61-6.54,8.21,11.28c-8.93,9.15-12.86,32.84.16,52.11.81,1.22,2.19,1.97,3.67,1.97h43.18c3.38,0,4.8-4.35,2.09-6.35C38.82,45.37,1.8,13.69,39.85,2.09Z"/>
    <path class="cls-7" d="M46.94,35.35s.16-3.71.03-4.96c-.23-1.84-1.64-7.28-1.64-7.28-.19-1.22-1.03-2.26-2.19-2.67l-4.09-1.45,2.55,12.41.74,4.8c.1.74.58,1.29,1.32,1.22l1.84,1.1c1.22-.1,1.58-1.93,1.45-3.16ZM17.65,29.35l.29.16c1.22.77,2.87.45,3.67-.77l9.35-12.66-5.25-2.13c-.64-.23-1.32.03-1.71.58l-7.12,11.05c-.84,1.26-.48,2.96.77,3.77Z"/>
    <path class="cls-5" d="M37.73,60.26l-4.74,1.58-5.41-20.3.74-2.87,7.02-1.06,2.38,22.65ZM26.87,38.89l1.45-.23.52-1.87h-7.8l-4.25,24.85,5.51-.39,5.28-19.72-.71-2.64Z"/>
    <path class="cls-8" d="M11.5,65.35h10.15c.52,0,.97-.1,1.06-.61l1.71-9.54h-6.99l-1.22,5.22-2.55.81c-1.16.39-2.16,1.13-2.8,2.16l-.23.35c-.42.68.06,1.58.87,1.61ZM44.56,63.74l-.23-.35c-.64-1.03-1.64-1.77-2.8-2.16l-2.55-.81-1.22-5.22h-6.99l1.71,9.54c.1.52.55.61,1.06.61h10.15c.81-.03,1.29-.93.87-1.61Z"/>
    <path class="cls-6" d="M24.16,56.46h-6.48c-.48,0-.9-.42-.9-.9v-.71c0-.48.42-.9.9-.9h6.48c.48,0,.9.42.9.9v.71c0,.48-.42.9-.9.9ZM30.12,55.55v-.71c0-.48.42-.9.9-.9h6.44c.52,0,.93.42.93.9v.71c0,.48-.42.9-.93.9h-6.44c-.48,0-.9-.42-.9-.9Z"/>
    <path class="cls-9" d="M33.99,40.96l-13.05-3.42,3.35-10.92,3.54-11.67,14.57,5.25-8.41,20.75Z"/>
    <path class="cls-12" d="M24.45,26.04l12.76,7.02,5.19-12.86-14.57-5.25-3.38,11.09Z"/>
    <path class="cls-9" d="M23.87,27.97l3.93-13.18,2.8,1.16-.64,4.41c-.13.9.39,1.74,1.26,2.06l4.58,1.58c.9.32,1.9-.1,2.32-.93l1.8-3.77,2.74.97-5.45,12.79-13.34-5.09Z"/>
    <path class="cls-11" d="M12.37,12.18l42.15,42.7"/>
    <path class="cls-17" d="M60.19,54.23s6.09,5.9,5.03,9.57c-.39,1.32-4.87,1.32-4.58.03l-2.87-8.54,2.42-1.06Z"/>
    <path class="cls-1" d="M36.66,21.01l-.84.19c-1.06.26-2.16-.1-2.9-.9l-.87-.97c-.35-.42-.48-1-.29-1.51l1.48-4.12,5.99,2.16-1.51,4.22c-.16.48-.58.84-1.06.93Z"/>
    <path class="cls-13" d="M32.83,14.89c.81,1.19,2.48,3.32,5.12,4.58l1.29-3.61-2.22-.81-3.93-.87-.26.71Z"/>
    <path class="cls-17" d="M41.72,33.9c1.39.03,3.83.26,4.99.29.29.03.48.26.48.55l-.26,6.28c0,.84-.42,1.64-1.13,2.13-1.35.93-3.06,2.06-4.64,1.77-.19-.03-.35-.16-.48-.29l-1.8-1.55c-.42-.55-.29-1.35.32-1.68l2.61-1.39-.58.1-.77-.77s1.35-.03,2.45-.29l-1.84-4.41c-.06-.39.23-.77.64-.74Z"/>
    <path class="cls-13" d="M41.72,14.72l-.58-.19,1.55-4.25.55.19c.81.29,1.22,1.19.93,2l-.48,1.32c-.29.81-1.16,1.22-1.97.93h0Z"/>
    <path class="cls-1" d="M38.69,17.37l-3.87-1.39c-1.16-.42-1.77-1.71-1.35-2.87l2.84-7.83c.61-1.68,2.45-2.55,4.09-1.93l2.45.87c1.68.58,2.51,2.42,1.93,4.09l-2.67,7.44c-.52,1.39-2.03,2.13-3.42,1.61Z"/>
    <path class="cls-13" d="M44.94,7.86c-2.55-.55-6.48-1.42-8.86-1.93l-.74,2.03c1.35.58,5.22,2.19,8.51,3l1.1-3.09Z"/>
    <path class="cls-1" d="M34.21,12.6l-.55-.19c-.77-.29-1.19-1.13-.9-1.9l.52-1.45c.29-.77,1.13-1.19,1.9-.9l.55.19-1.51,4.25Z"/>
    <path class="cls-15" d="M34.31,10.89l1.16-.13,1.42-3.42-1.16-.42-1.42,3.96ZM42.33,12.79s.52.97.52.93,1.42-3.93,1.42-3.93l-.97-.32-.97,3.32Z"/>
    <path class="cls-9" d="M36.5,4.12l-1.13,3.16,9.09,2.61.93-2.55c.42-1.16-.19-2.42-1.35-2.84l-4.7-1.71c-1.16-.42-2.42.19-2.84,1.32Z"/>
    <path class="cls-10" d="M35.37,7.28l11.47,3.96c.26.06.48-.16.42-.39-.16-.68-.68-1.22-1.35-1.42l-10.09-3.45-.45,1.29Z"/>
    <path class="cls-17" d="M17.59,18.98l-1.29,7.83c-.06.32.19.61.52.58,1.48-.1,5.22-.32,5.28-.45.1-.16-.32-6.93-.32-6.93l-4.19-1.03Z"/>
    <path class="cls-14" d="M17.23,21.17c.06.02.12.03.16.03l4.64,3.09c-.1-1.71-.26-4.29-.26-4.29l-4.19-1.03-.35,2.19Z"/>
    <path class="cls-17" d="M17.17,14.76c-.48,1.39-1.22,2.42-.9,4.09.16.71.68,1.26,1.39,1.45l3.9,2.29c.52.13,1.06-.23,1.1-.77l.32-5.06c.03-.52-.29-.97-.77-1.13l-3.45-1.71c-.68-.19-1.39.16-1.58.84Z"/>
    <path class="cls-14" d="M58.22,65.35c.9-.19,1.8-.45,2.64-.87,1.39-.71,2-2.35,1.42-3.8-.64-1.74-1.97-4.09-4.51-5.8l-2.13.71s2.19,7.61-4.25,9.73c0,0,.03.01.1.03h6.73Z"/>
    <path class="cls-17" d="M45.88,65.35h6.86c1.1-.32,2.19-.87,3.22-1.68,1.71-1.39,2.77-4.99,0-8.8l-3.87,2.16s1.26,4.35-4.25,5.83c-3.29.87-3.13,2.13-3.13,2.13,0,0,.42.16,1.16.35h0Z"/>
    <path class="cls-15" d="M51.1,56.87l.42.68c.19.32.64.48,1,.32l8.06-3.42c.55-.26.68-.97.23-1.39l-.9-.81c-.45-.45-1.13-.55-1.71-.32l-6.32,2.51c-.97.39-1.32,1.55-.77,2.42Z"/>
    <path class="cls-4" d="M9.11,54.75c-.16-1.64-.97-2.84-2.48-3.54,1.61-.1,2.84-1,3.58-2.45,0,0,.1,2.45,2.48,3.51-2.8.19-3.58,2.48-3.58,2.48h0ZM15.81,44.53c-.64-1.26-1.68-1.97-3.13-2.06,1.26-.61,1.97-1.71,2.06-3.13,0,0,.9,1.93,3.13,2.03-2.16,1.06-2.06,3.16-2.06,3.16h0ZM5.24,40.5c-.55-1.06-1.42-1.64-2.61-1.71,1.03-.52,1.61-1.45,1.71-2.61,0,0,.74,1.61,2.61,1.68-1.8.9-1.71,2.64-1.71,2.64ZM17.49,35.28c0-.77-.32-1.39-1.03-1.8.77.03,1.39-.35,1.8-1,0,0-.03,1.16,1.03,1.77-1.32-.03-1.8,1.03-1.8,1.03ZM9.66,32.09c-.26-.81-.77-1.39-1.61-1.61.81-.19,1.35-.77,1.61-1.58,0,0,.29,1.26,1.61,1.58-1.42.35-1.61,1.61-1.61,1.61ZM10.63,24.29c-.35-.64-.87-1-1.64-1.03.64-.32,1-.9,1.06-1.61,0,0,.48.97,1.61,1-1.1.58-1.03,1.64-1.03,1.64ZM8.95,17.04c-.32-.61-.84-.97-1.55-.97.61-.32.93-.87,1-1.55,0,0,.42.93,1.51.97-1.03.52-.97,1.55-.97,1.55ZM25.16,8.25c-.26-.45-.64-.71-1.19-.74.48-.23.74-.68.77-1.19,0,0,.35.74,1.19.74-.81.42-.77,1.19-.77,1.19ZM27.09,3.64c-.26-.48-.64-.74-1.19-.74.48-.26.74-.68.77-1.19,0,0,.32.71,1.19.74-.84.42-.77,1.19-.77,1.19ZM15.52,9.7c-.32-.58-.81-.93-1.48-.93.58-.29.9-.84.93-1.51,0,0,.45.93,1.48.93-1,.52-.93,1.51-.93,1.51ZM46.04,58.61c-.13-1.19-.68-2.03-1.77-2.55,1.13-.06,2.03-.71,2.55-1.77,0,0,.1,1.77,1.77,2.51-2,.16-2.55,1.8-2.55,1.8h0ZM41.21,52.65c-.64-.71-1.39-1.03-2.35-.84.71-.58,1-1.42.84-2.32,0,0,.9,1.1,2.32.81-1.22,1.03-.81,2.35-.81,2.35ZM27.45,60.1c0,.84-.64,1.48-1.45,1.48s-1.48-.64-1.48-1.48.64-1.45,1.48-1.45,1.45.64,1.45,1.45ZM5.5,43.79c0,.42-.32.74-.74.74-.39,0-.74-.32-.74-.74,0-.39.35-.74.74-.74.42,0,.74.35.74.74ZM13.01,37.44c0,.52-.42.9-.9.9s-.9-.39-.9-.9c0-.48.42-.9.9-.9s.9.42.9.9ZM14.01,26.71c0,.39-.29.68-.64.68-.39,0-.68-.29-.68-.68,0-.35.29-.64.68-.64.35,0,.64.29.64.64ZM5.92,25.39c0,.39-.29.68-.64.68-.39,0-.68-.29-.68-.68,0-.35.29-.64.68-.64.35,0,.64.29.64.64ZM5.28,20.17c0,.26-.23.48-.52.48-.26,0-.48-.23-.48-.48,0-.29.23-.52.48-.52.29,0,.52.23.52.52ZM15.04,21.91c0,.26-.23.48-.48.48-.29,0-.52-.23-.52-.48,0-.29.23-.52.52-.52.26,0,.48.23.48.52ZM13.43,18.62c0,.19-.16.35-.39.35-.19,0-.35-.16-.35-.35,0-.23.16-.39.35-.39.23,0,.39.16.39.39ZM19.58,9.44c0,.19-.16.35-.39.35-.19,0-.35-.16-.35-.35s.16-.39.35-.39c.23,0,.39.19.39.39ZM22.77,11.92c0,.19-.16.39-.39.39-.19,0-.35-.19-.35-.39s.16-.35.35-.35c.23,0,.39.16.39.35ZM31.12,3.48c0,.19-.16.39-.35.39-.23,0-.39-.19-.39-.39s.16-.35.39-.35c.19,0,.35.16.35.35ZM22.48,4.8c0,.19-.16.35-.35.35s-.39-.16-.39-.35c0-.23.19-.39.39-.39s.35.16.35.39ZM16.01,49.24c0,.39-.32.71-.74.71-.39,0-.71-.32-.71-.71,0-.42.32-.74.71-.74.42,0,.74.32.74.74ZM13.43,57.94c0,.39-.35.71-.74.71-.42,0-.74-.32-.74-.71,0-.42.32-.74.74-.74.39,0,.74.32.74.74ZM42.69,57.91c0,.39-.32.74-.71.74-.42,0-.74-.35-.74-.74,0-.42.32-.74.74-.74.39,0,.71.32.71.74ZM39.66,46.27c0,.35-.29.64-.68.64-.35,0-.64-.29-.64-.64,0-.39.29-.68.64-.68.39,0,.68.29.68.68ZM28.8,51.07c0,.35-.32.64-.68.64-.39,0-.68-.29-.68-.64,0-.39.29-.68.68-.68.35,0,.68.29.68.68Z"/>
  </g>
  <g>
    <path class="cls-2" d="M95.53,56.51h-3.63l-1.44-3.9h-6.6l-1.36,3.9h-3.54l6.43-17.18h3.52l6.61,17.18ZM89.4,49.71l-2.27-6.38-2.23,6.38h4.5Z"/>
    <path class="cls-2" d="M97.28,56.51v-17.18h3.16v17.18h-3.16Z"/>
    <path class="cls-2" d="M103.33,51.93v-3.29h6.22v3.29h-6.22Z"/>
    <path class="cls-2" d="M110.54,50.92l3.24-.33c.2,1.13.59,1.96,1.19,2.5.6.53,1.4.8,2.41.8,1.07,0,1.88-.24,2.43-.71.54-.47.82-1.03.82-1.66,0-.41-.12-.75-.34-1.04s-.63-.53-1.2-.74c-.39-.14-1.28-.39-2.67-.75-1.79-.46-3.04-1.03-3.76-1.7-1.01-.95-1.52-2.1-1.52-3.46,0-.88.24-1.69.72-2.46.48-.76,1.16-1.34,2.06-1.74.9-.4,1.98-.6,3.25-.6,2.07,0,3.63.47,4.68,1.42,1.05.95,1.6,2.21,1.65,3.79l-3.33.15c-.14-.88-.45-1.52-.92-1.9-.47-.39-1.17-.58-2.11-.58s-1.73.21-2.28.62c-.35.27-.53.62-.53,1.07,0,.41.17.75.5,1.04.42.37,1.44.75,3.06,1.15s2.82.81,3.6,1.24,1.38,1.01,1.82,1.75.66,1.65.66,2.74c0,.98-.26,1.91-.79,2.77s-1.27,1.5-2.23,1.92-2.16.63-3.59.63c-2.09,0-3.69-.5-4.81-1.51s-1.79-2.47-2-4.39Z"/>
    <path class="cls-2" d="M129.9,39.33v6.32c1.02-1.24,2.24-1.86,3.66-1.86.73,0,1.39.14,1.97.42.59.28,1.03.64,1.32,1.08s.5.92.61,1.45.16,1.36.16,2.47v7.3h-3.16v-6.57c0-1.3-.06-2.13-.18-2.48-.12-.35-.33-.63-.63-.84-.3-.21-.69-.31-1.14-.31-.53,0-.99.13-1.41.4-.41.27-.71.67-.91,1.2s-.29,1.33-.29,2.37v6.23h-3.16v-17.18h3.16Z"/>
    <path class="cls-2" d="M143.2,47.86l-2.87-.54c.32-1.2.88-2.09,1.67-2.67.79-.58,1.96-.87,3.51-.87,1.41,0,2.46.17,3.15.52.69.35,1.18.79,1.46,1.32.28.54.42,1.52.42,2.95l-.04,3.84c0,1.09.05,1.9.15,2.42s.29,1.08.57,1.67h-3.13c-.08-.22-.19-.54-.3-.97-.05-.2-.09-.32-.11-.39-.54.55-1.12.96-1.73,1.23s-1.27.41-1.97.41c-1.23,0-2.2-.35-2.91-1.04s-1.06-1.57-1.06-2.64c0-.7.16-1.33.48-1.88s.78-.97,1.36-1.27,1.42-.55,2.52-.77c1.48-.29,2.5-.56,3.07-.81v-.33c0-.63-.15-1.08-.45-1.35-.3-.27-.87-.4-1.7-.4-.56,0-1,.12-1.32.35-.32.23-.57.63-.77,1.21ZM147.43,50.53c-.4.14-1.05.31-1.93.5-.88.2-1.45.39-1.72.57-.41.3-.62.69-.62,1.16s.17.86.5,1.2.75.5,1.26.5c.57,0,1.11-.2,1.63-.59.38-.3.63-.66.75-1.09.08-.28.12-.82.12-1.61v-.66Z"/>
    <path class="cls-2" d="M156.69,56.51h-3.16v-12.45h2.94v1.77c.5-.84.96-1.39,1.36-1.65s.86-.4,1.37-.4c.72,0,1.41.21,2.08.62l-.98,2.87c-.53-.36-1.03-.54-1.49-.54s-.82.13-1.13.38-.55.71-.73,1.38-.26,2.05-.26,4.17v3.84Z"/>
    <path class="cls-2" d="M170.45,61.24v-6.26c-.41.55-.93.99-1.54,1.32s-1.28.49-1.99.49c-1.36,0-2.48-.53-3.36-1.59-1.04-1.24-1.55-2.93-1.55-5.05,0-2,.49-3.56,1.46-4.68.97-1.12,2.18-1.68,3.62-1.68.8,0,1.48.18,2.07.53s1.1.88,1.55,1.59v-1.84h2.92v17.18h-3.16ZM170.55,50.13c0-1.27-.25-2.22-.75-2.84-.5-.62-1.12-.93-1.88-.93s-1.41.32-1.92.95c-.52.63-.77,1.64-.77,3.01s.25,2.35.74,2.96,1.11.91,1.84.91,1.37-.34,1.91-1.02.82-1.69.82-3.04Z"/>
    <path class="cls-2" d="M193.71,50.19l3.23,1.07c-.5,1.88-1.32,3.27-2.47,4.18-1.15.91-2.62,1.37-4.39,1.37-2.19,0-3.99-.78-5.41-2.34-1.41-1.56-2.12-3.69-2.12-6.39,0-2.86.71-5.08,2.13-6.66,1.42-1.58,3.29-2.37,5.6-2.37,2.02,0,3.66.62,4.92,1.86.75.73,1.31,1.79,1.69,3.16l-3.3.82c-.2-.89-.6-1.59-1.22-2.11s-1.37-.77-2.26-.77c-1.22,0-2.22.46-2.98,1.37s-1.14,2.39-1.14,4.44c0,2.17.38,3.72,1.13,4.64.75.92,1.73,1.38,2.93,1.38.88,0,1.65-.29,2.29-.88s1.1-1.51,1.37-2.77Z"/>
    <path class="cls-2" d="M199.05,50.11c0-1.09.26-2.15.78-3.18.52-1.02,1.25-1.8,2.2-2.34.95-.54,2.01-.81,3.18-.81,1.81,0,3.29.61,4.45,1.83,1.15,1.22,1.73,2.77,1.73,4.63s-.58,3.44-1.75,4.68-2.64,1.86-4.41,1.86c-1.1,0-2.14-.26-3.14-.77s-1.75-1.27-2.27-2.27c-.52-1-.78-2.21-.78-3.64ZM202.3,50.29c0,1.23.28,2.18.84,2.84.56.66,1.26.98,2.08.98s1.52-.33,2.08-.98c.56-.66.84-1.61.84-2.86s-.28-2.16-.84-2.81c-.56-.66-1.25-.98-2.08-.98s-1.52.33-2.08.98c-.56.66-.84,1.6-.84,2.84Z"/>
    <path class="cls-2" d="M213.87,56.51v-3.29h3.16v3.29h-3.16Z"/>
  </g>
  <g>
    <path class="cls-2" d="M84.12,19.84c-.08.43-.15.81-.2,1.14-.05.33-.09.63-.12.88s-.05.49-.06.69c0,.2-.01.38-.01.56,0,.56.07,1.06.22,1.51.15.44.42.81.82,1.11s.94.53,1.64.69c.7.16,1.59.24,2.69.24,1.18,0,2.14-.08,2.87-.25s1.31-.39,1.74-.67c.42-.29.72-.62.89-.99.17-.38.28-.77.34-1.2-.63.2-1.29.29-1.99.29-.58,0-1.17-.07-1.77-.22-.6-.15-1.13-.38-1.61-.7s-.87-.74-1.18-1.25c-.3-.52-.46-1.14-.46-1.88,0-.66.12-1.3.37-1.95.25-.64.59-1.21,1.02-1.72.43-.51.94-.92,1.52-1.23.58-.31,1.2-.47,1.86-.47.72,0,1.38.18,1.97.54.6.36,1.13.88,1.61,1.56.55.78.96,1.65,1.23,2.61s.39,2,.39,3.13c0,1.34-.19,2.49-.56,3.45-.37.95-.93,1.73-1.68,2.34s-1.68,1.05-2.8,1.33-2.43.42-3.93.42-2.68-.13-3.72-.38-1.9-.64-2.57-1.17c-.67-.52-1.17-1.19-1.49-1.99-.32-.8-.48-1.75-.48-2.84,0-.5.03-1.04.1-1.61s.19-1.23.35-1.99h2.98ZM91.67,11.84h-3.25v-2.47h3.25v2.47ZM92.52,17.68c-.25,0-.48.07-.69.21s-.39.31-.55.51-.27.42-.35.64-.12.43-.12.61c0,.23.06.42.19.57s.3.28.51.38.46.17.74.22.57.06.87.06.6-.02.9-.06.58-.11.83-.19c-.07-.29-.18-.6-.32-.94s-.31-.66-.51-.96c-.2-.3-.43-.54-.68-.74-.25-.2-.52-.3-.82-.3ZM96.4,11.84h-3.25v-2.47h3.25v2.47Z"/>
    <path class="cls-2" d="M111.31,19.51c-.25,0-.46,0-.64,0-.18,0-.34,0-.5.02.11.52.2,1.03.26,1.55s.1,1.05.1,1.59c0,1.24-.18,2.31-.53,3.21s-.84,1.64-1.44,2.22c-.61.58-1.3,1.01-2.1,1.29s-1.63.42-2.52.42c-.44,0-.89-.04-1.34-.11s-.96-.2-1.54-.38v-3.18c.64.16,1.17.27,1.6.33.43.07.82.1,1.18.1.75,0,1.36-.11,1.83-.33s.84-.52,1.11-.9c.27-.38.45-.81.55-1.3.1-.49.14-1.01.14-1.55,0-.41-.03-.82-.08-1.22s-.13-.82-.24-1.27-.25-.91-.42-1.41c-.17-.5-.37-1.05-.6-1.66.55-.06,1.09-.12,1.62-.16.53-.05,1.02-.08,1.48-.11.46-.03.89-.05,1.28-.06.39-.02.72-.02,1-.02.15,0,.29.03.44.09.15.06.28.16.4.29.12.13.21.29.28.47.07.19.1.41.1.66,0,.27-.05.5-.14.69s-.21.33-.35.44-.29.19-.46.23c-.17.05-.33.07-.48.07Z"/>
    <path class="cls-2" d="M113.9,19.58c-.38-.02-.77-.04-1.18-.05s-.88-.02-1.41-.02l.19-2.94c.9,0,1.77.02,2.62.06.85.04,1.76.1,2.73.18v1.76c0,.37.01.69.04.97.03.28.1.51.23.69.12.18.32.32.59.42s.65.14,1.14.14c.28,0,.54-.01.8-.04s.49-.09.69-.19c.2-.1.36-.26.48-.46s.19-.49.19-.86v-3.33h2.95v2.52c0,.41.01.76.04,1.05s.11.54.24.74.35.34.64.43c.29.09.7.14,1.23.14.29,0,.55-.01.8-.04.25-.02.46-.09.64-.19.18-.11.32-.26.42-.47s.15-.49.15-.86v-5.57h2.95v4.69c0,.41.01.77.04,1.08.03.3.12.56.27.76s.39.35.71.45.77.15,1.35.15v3.19h-.64c-.76,0-1.39-.09-1.91-.27-.52-.18-.94-.49-1.27-.94-.24.24-.5.44-.78.6s-.57.28-.88.37-.62.15-.93.19-.63.05-.93.05c-.36,0-.72-.02-1.07-.06s-.68-.11-1-.21-.6-.23-.87-.4-.5-.39-.69-.64h-.06c-.25.25-.53.46-.84.63-.31.17-.63.31-.96.41-.33.1-.65.17-.98.22-.32.04-.63.06-.91.06-.94,0-1.72-.13-2.33-.39s-1.09-.6-1.45-1.03c-.36-.42-.61-.89-.76-1.41s-.24-1.04-.26-1.55ZM121.77,13.3h-3.25v-2.47h3.25v2.47ZM124.15,10.02h-3.25v-2.47h3.25v2.47ZM126.52,13.3h-3.25v-2.47h3.25v2.47Z"/>
    <path class="cls-2" d="M135.11,23.96h-1.69c-.32,0-.57-.14-.73-.43-.16-.29-.24-.67-.24-1.17s.08-.88.24-1.17c.16-.29.4-.43.73-.43h1.83c.37,0,.7-.01.99-.04.29-.02.54-.09.73-.19.2-.1.35-.26.45-.46.1-.21.15-.5.15-.87V5.9h2.95v13.39c0,.95-.15,1.73-.46,2.34s-.71,1.08-1.21,1.42-1.08.58-1.73.71c-.65.13-1.32.19-2.01.19Z"/>
    <path class="cls-2" d="M144.68,23.67V5.9h2.95v17.77h-2.95Z"/>
    <path class="cls-2" d="M171.38,23.96c-.46,0-.91-.04-1.34-.11-.43-.07-.83-.19-1.2-.36s-.7-.4-1-.69-.55-.66-.75-1.11c-.36.07-.72.12-1.07.16-.35.04-.71.06-1.06.06-.71,0-1.38-.08-2.02-.25s-1.2-.41-1.68-.74c-.48-.33-.86-.74-1.14-1.24-.28-.5-.42-1.08-.42-1.75,0-.78.19-1.48.57-2.11.38-.62.9-1.17,1.54-1.64s1.38-.86,2.23-1.16,1.73-.53,2.67-.67v-1.44h2.95v7.73c0,.36.02.67.06.94s.14.48.3.66c.16.17.4.3.72.39s.75.13,1.31.13v3.19h-.65ZM164.75,8.74h-3.25v-2.47h3.25v2.47ZM166.7,15.41c-.56.09-1.09.2-1.59.33-.5.12-.94.28-1.32.46-.38.18-.68.39-.9.63s-.33.53-.33.86c0,.26.07.46.2.62.13.16.31.28.53.37.22.09.48.15.76.18s.58.04.89.04.6-.01.89-.04.58-.07.87-.13v-3.3ZM169.48,8.74h-3.25v-2.47h3.25v2.47Z"/>
    <path class="cls-2" d="M172.03,10.85l12.2-6.53v3.36l-8.43,4.36c1.11.47,2.12.96,3.05,1.47s1.73,1.06,2.41,1.65,1.21,1.23,1.58,1.91c.38.68.57,1.43.57,2.23,0,.34-.04.7-.11,1.05s-.21.71-.4,1.05c-.19.34-.46.67-.81.98-.35.31-.79.58-1.34.81-.54.23-1.2.41-1.97.55s-1.68.21-2.72.21h-4.03c-.32,0-.57-.14-.73-.43-.16-.29-.24-.67-.24-1.17s.08-.88.24-1.17c.16-.29.4-.43.73-.43h4.07c.84,0,1.54-.02,2.09-.05.55-.03,1-.1,1.33-.19.33-.1.57-.23.71-.41.14-.18.21-.41.21-.7,0-.85-.7-1.75-2.09-2.68s-3.5-1.98-6.31-3.13v-2.77Z"/>
    <path class="cls-2" d="M194.9,19.51c-.25,0-.46,0-.64,0-.18,0-.34,0-.5.02.11.52.2,1.03.26,1.55s.1,1.05.1,1.59c0,1.24-.18,2.31-.53,3.21s-.83,1.64-1.44,2.22-1.3,1.01-2.1,1.29-1.63.42-2.52.42c-.44,0-.89-.04-1.34-.11-.45-.07-.96-.2-1.54-.38v-3.18c.64.16,1.17.27,1.6.33.43.07.82.1,1.18.1.75,0,1.36-.11,1.83-.33.47-.22.84-.52,1.11-.9s.45-.81.55-1.3.15-1.01.15-1.55c0-.41-.03-.82-.08-1.22s-.13-.82-.24-1.27c-.11-.44-.25-.91-.42-1.41s-.37-1.05-.6-1.66c.55-.06,1.09-.12,1.62-.16.53-.05,1.02-.08,1.48-.11.46-.03.89-.05,1.27-.06s.72-.02,1-.02c.15,0,.29.03.44.09s.28.16.4.29c.12.13.21.29.28.47s.1.41.1.66c0,.27-.05.5-.14.69-.09.18-.21.33-.35.44s-.29.19-.46.23-.33.07-.48.07Z"/>
    <path class="cls-2" d="M197.49,19.58c-.38-.02-.77-.04-1.18-.05s-.88-.02-1.41-.02l.19-2.94c.9,0,1.77.02,2.62.06.85.04,1.76.1,2.73.18v1.76c0,.37.01.69.04.97.03.28.1.51.23.69.12.18.32.32.59.42s.65.14,1.14.14c.28,0,.54-.01.8-.04s.49-.09.69-.19c.2-.1.36-.26.48-.46s.19-.49.19-.86v-3.33h2.95v2.52c0,.41.01.76.04,1.05s.11.54.24.74.35.34.64.43c.29.09.7.14,1.23.14.29,0,.55-.01.8-.04.25-.02.46-.09.64-.19.18-.11.32-.26.42-.47s.15-.49.15-.86v-5.57h2.95v5.72c0,.92-.14,1.68-.42,2.27-.28.59-.65,1.06-1.11,1.41-.46.34-.99.58-1.59.71-.6.13-1.22.2-1.87.2-.36,0-.72-.02-1.07-.06s-.68-.11-1-.21-.6-.23-.87-.4-.5-.39-.69-.64h-.06c-.25.25-.53.46-.84.63-.31.17-.63.31-.96.41-.33.1-.65.17-.98.22-.32.04-.63.06-.91.06-.94,0-1.72-.13-2.33-.39s-1.09-.6-1.45-1.03c-.36-.42-.61-.89-.76-1.41s-.24-1.04-.26-1.55ZM205.36,13.3h-3.25v-2.47h3.25v2.47ZM207.74,10.02h-3.25v-2.47h3.25v2.47ZM210.1,13.3h-3.25v-2.47h3.25v2.47Z"/>
  </g>
</svg>