<?xml version="1.0" encoding="UTF-8"?>
<svg id="Layer_1" data-name="Layer 1" xmlns="http://www.w3.org/2000/svg" viewBox="0 0 77.2 26.73">
  <defs>
    <style>
      .cls-1 {
        fill: #ffe326;
      }

      .cls-1, .cls-2, .cls-3, .cls-4, .cls-5 {
        fill-rule: evenodd;
      }

      .cls-6, .cls-2 {
        fill: #295785;
      }

      .cls-7 {
        fill: #ffce00;
      }

      .cls-3 {
        fill: #ffd93b;
      }

      .cls-4 {
        fill: #4591de;
      }

      .cls-5 {
        fill: #244a70;
      }
    </style>
  </defs>
  <g>
    <path class="cls-3" d="M15.62,5.98c4.18,1.05,7.28,4.83,7.28,9.34,0,4.83-3.56,8.83-8.19,9.52.07-.16.12-.33.14-.51l.92-10.31h.18c.73,0,1.32-.59,1.32-1.32s-.59-1.32-1.32-1.32h-1.63l.49-2.03c.2.59.76,1.02,1.42,1.02.83,0,1.5-.67,1.5-1.5s-.67-1.5-1.5-1.5c-.4,0-.77.16-1.04.42l.44-1.82h0ZM4.47,11.39c.27-.6.6-1.17.97-1.69,0,.04,0,.08,0,.11,0,.71.57,1.28,1.28,1.28s1.28-.57,1.28-1.28-.57-1.28-1.28-1.28c-.11,0-.22.01-.33.04.85-.87,1.87-1.58,3-2.08.18.08.39.12.6.12.55,0,1.03-.29,1.29-.73.64-.13,1.31-.21,1.99-.21l-.36,1.47c-.26-.43-.74-.72-1.28-.72-.83,0-1.5.67-1.5,1.5s.67,1.5,1.5,1.5c.29,0,.55-.08.78-.22l-.52,2.17h-.97c.18-.25.29-.56.29-.89,0-.83-.67-1.5-1.5-1.5s-1.5.67-1.5,1.5c0,.33.11.64.29.89h-4.03Z"/>
    <path class="cls-1" d="M15.62,5.98c1.8.45,3.4,1.42,4.64,2.72.05.4.07.81.07,1.23,0,3.81-2,7.44-5.1,9.97l.52-5.87h.18c.73,0,1.32-.59,1.32-1.32s-.59-1.32-1.32-1.32h-1.63l.49-2.03c.2.59.76,1.02,1.42,1.02.83,0,1.5-.67,1.5-1.5s-.67-1.5-1.5-1.5c-.4,0-.77.16-1.04.42l.44-1.82h0ZM4.47,11.39c.27-.6.6-1.17.97-1.69,0,.04,0,.08,0,.11,0,.71.57,1.28,1.28,1.28s1.28-.57,1.28-1.28-.57-1.28-1.28-1.28c-.11,0-.22.01-.33.04.85-.87,1.87-1.58,3-2.08.18.08.39.12.6.12.55,0,1.03-.29,1.29-.73.64-.13,1.31-.21,1.99-.21l-.36,1.47c-.26-.43-.74-.72-1.28-.72-.83,0-1.5.67-1.5,1.5s.67,1.5,1.5,1.5c.29,0,.55-.08.78-.22l-.52,2.17h-.97c.18-.25.29-.56.29-.89,0-.83-.67-1.5-1.5-1.5s-1.5.67-1.5,1.5c0,.33.11.64.29.89h-4.03Z"/>
    <path class="cls-5" d="M6.61,25.13h-1.2c-.48,0-.88-.37-.93-.85l-.42-4.76c.83-.05,1.64-.21,2.39-.43l.07.46c.22,1.9.21,3.86.08,5.57h0ZM14.51,21.07l-.03.33-.85-1.61.88,1.27h0ZM14.4,22.41l-.17,1.87c-.04.48-.44.85-.93.85h-5.21l.65-.28-1.04-4.84,1.57,4.61.98-.42-1.17-3.12,1.53,2.97.66-.28-.83-3.88,1.26,3.69,1.7-.73-1.96-3.71,2.42,3.51.53-.23h0ZM7.95,25.13h-.27l-.45-2.12.72,2.12h0Z"/>
    <path class="cls-2" d="M4.4,23.39l-.34-3.86c.83-.05,1.64-.21,2.39-.43l.07.46c.15,1.28.19,2.58.17,3.82-.78.07-1.55.07-2.29,0h0ZM14.23,20.66l-.1.07-.49-.93.59.86h0ZM13.02,21.41c-.1.05-.19.11-.29.16l-1.29-2.45,1.58,2.29h0ZM11.26,22.27c-.09.04-.19.08-.28.11l-.53-2.5.82,2.39h0ZM9.94,22.74c-.07.02-.14.04-.21.06l-.65-1.73.86,1.67h0ZM8.75,23.06c-.12.03-.25.05-.37.08l-.67-3.13,1.04,3.05h0ZM7.34,23.31h-.04s-.06-.3-.06-.3l.1.3h0Z"/>
    <path class="cls-4" d="M15.19,13.42l-.57,6.39c-1.08-.98-2.15-2.09-3.06-3.27l-1.21.52.02-.02h0l-.04.03-3.36,1.45c-.73.2-1.45.34-2.13.42-1.03.12-1.98.09-2.76-.07h0c-.82-.17-1.45-.48-1.79-.93-.11-.14-.18-.29-.23-.45-.23-.76.26-1.64,1.24-2.45.59-.49,1.36-.96,2.25-1.36l-.02-.26h-.74c-.39,0-.71-.32-.71-.71h0c0-.39.32-.71.71-.71h3.25l1.61,3.73-1.14.49c-.32.14-.48.53-.37.94.09.35.17.71.24,1.08l4.84-2.09c-.22-.3-.42-.61-.62-.92-.22-.36-.61-.52-.94-.38l-1.14.49-1.44-3.35h5.28L15.16.44c.07-.3.38-.49.69-.42h0c.3.07.49.38.42.69l-2.74,11.3h2.4c.39,0,.71.32.71.71h0c0,.39-.32.71-.71.71h-.74ZM3.97,18.5l-.33-3.74c.15-.07.31-.15.47-.22v-.49c-.86.38-1.6.82-2.15,1.29-.84.7-1.27,1.45-1.09,2.06.03.12.09.22.17.32.25.32.71.54,1.31.67h0c.47.1,1.02.13,1.63.11h0Z"/>
    <path class="cls-4" d="M9.7,9.61c.49,0,.89.4.89.89s-.4.89-.89.89-.89-.4-.89-.89.4-.89.89-.89h0ZM9.61,9.9c.21,0,.37.17.37.37s-.17.37-.37.37-.37-.17-.37-.37.17-.37.37-.37h0Z"/>
    <path class="cls-5" d="M11.62,8.84c-.49,0-.89-.4-.89-.89s.4-.89.89-.89.89.4.89.89-.4.89-.89.89h0ZM11.71,8.55c-.21,0-.37-.17-.37-.37s.17-.37.37-.37.37.17.37.37-.17.37-.37.37h0Z"/>
    <path class="cls-5" d="M6.71,10.48c-.37,0-.67-.3-.67-.67s.3-.67.67-.67.67.3.67.67-.3.67-.67.67h0ZM6.78,10.27c-.15,0-.28-.13-.28-.28s.12-.28.28-.28.28.13.28.28-.12.28-.28.28h0Z"/>
    <path class="cls-4" d="M9.99,4.24c.49,0,.89.4.89.89s-.4.89-.89.89-.89-.4-.89-.89.4-.89.89-.89h0ZM9.9,4.53c.21,0,.37.17.37.37s-.17.37-.37.37-.37-.17-.37-.37.17-.37.37-.37h0Z"/>
    <path class="cls-4" d="M16.22,8c.49,0,.89.4.89.89s-.4.89-.89.89-.89-.4-.89-.89.4-.89.89-.89h0ZM16.13,8.28c.21,0,.37.17.37.37s-.17.37-.37.37-.37-.17-.37-.37.17-.37.37-.37h0Z"/>
  </g>
  <g>
    <g>
      <path class="cls-6" d="M35.95,11.18c-.51,0-.9-.14-1.16-.43-.26-.29-.39-.7-.39-1.25v-3.82h-1.03v-1.28h1.03v-2.04l1.49-.69v2.74h1.58v1.28h-1.58v3.51c0,.24.05.41.14.53.1.11.24.17.44.17.32,0,.68-.1,1.06-.31l-.17,1.31c-.21.1-.43.17-.66.22s-.48.07-.75.07Z"/>
      <path class="cls-6" d="M40.65,11.18c-.74,0-1.33-.2-1.75-.59-.42-.39-.64-.93-.64-1.6,0-.44.11-.82.33-1.15.22-.33.52-.58.92-.76.39-.18.85-.27,1.38-.27.31,0,.61.03.89.09.28.06.53.15.75.26v-.43c0-.42-.11-.74-.33-.94-.22-.21-.55-.31-1-.31-.33,0-.67.06-1.02.18s-.69.29-1.03.51l-.45-1.16c.37-.24.79-.43,1.25-.56s.93-.2,1.4-.2c.87,0,1.53.21,1.96.62.44.41.65,1.03.65,1.86v4.3h-1.45v-.56c-.24.23-.52.41-.84.53-.32.12-.67.19-1.03.19ZM40.96,9.94c.29,0,.57-.06.84-.18s.51-.29.73-.52v-.9c-.2-.11-.42-.19-.67-.25-.25-.06-.49-.09-.73-.09-.44,0-.79.09-1.04.26-.25.17-.38.42-.38.72s.11.53.33.7c.22.17.53.26.93.26Z"/>
      <path class="cls-6" d="M46.69,11.02l-1.83-6.63h1.47l.89,3.69c.03.12.06.26.09.4.03.15.05.29.08.42.03-.13.06-.27.1-.42.04-.15.07-.29.1-.4l1.03-3.69h1.29l1.02,3.69c.04.12.07.26.11.41.04.15.07.29.1.43.02-.13.05-.28.08-.43.03-.15.06-.29.09-.41l.9-3.69h1.47l-1.84,6.63h-1.32l-1.01-3.52c-.04-.12-.08-.28-.12-.46-.05-.19-.09-.35-.12-.5-.03.14-.07.31-.12.5-.05.19-.09.34-.13.46l-1,3.52h-1.33Z"/>
      <path class="cls-6" d="M56.67,11.18c-.74,0-1.33-.2-1.75-.59-.42-.39-.64-.93-.64-1.6,0-.44.11-.82.33-1.15.22-.33.52-.58.92-.76.39-.18.85-.27,1.38-.27.31,0,.61.03.89.09.28.06.53.15.75.26v-.43c0-.42-.11-.74-.33-.94-.22-.21-.55-.31-1-.31-.33,0-.67.06-1.02.18s-.69.29-1.03.51l-.45-1.16c.37-.24.79-.43,1.25-.56s.93-.2,1.4-.2c.87,0,1.53.21,1.96.62.44.41.65,1.03.65,1.86v4.3h-1.45v-.56c-.24.23-.52.41-.84.53-.32.12-.67.19-1.03.19ZM56.98,9.94c.29,0,.57-.06.84-.18s.51-.29.73-.52v-.9c-.2-.11-.42-.19-.67-.25-.25-.06-.49-.09-.73-.09-.44,0-.79.09-1.04.26-.25.17-.38.42-.38.72s.11.53.33.7c.22.17.53.26.93.26Z"/>
      <path class="cls-6" d="M63.68,11.18c-.51,0-1-.11-1.47-.32-.47-.21-.85-.5-1.13-.86l1-.83c.23.24.5.43.79.56s.58.21.86.21c.35,0,.63-.06.82-.19.2-.12.29-.3.29-.52,0-.14-.04-.26-.13-.38-.09-.11-.24-.23-.46-.34-.22-.11-.53-.24-.92-.38-.76-.27-1.3-.57-1.62-.89-.32-.32-.48-.72-.48-1.2,0-.54.22-.98.66-1.31s1.02-.5,1.73-.5c.48,0,.93.09,1.34.27.41.18.76.44,1.06.77l-.99.8c-.4-.4-.88-.6-1.43-.6-.3,0-.53.06-.71.17-.18.11-.26.26-.26.44s.1.34.31.48c.21.14.58.3,1.14.49.5.16.92.35,1.24.55.32.2.55.44.7.7s.22.57.22.91c0,.61-.23,1.09-.68,1.44-.45.35-1.08.52-1.87.52Z"/>
      <path class="cls-6" d="M70.13,11.18c-.95,0-1.69-.31-2.24-.93s-.82-1.46-.82-2.53c0-.71.12-1.33.37-1.85.25-.52.6-.92,1.06-1.2.46-.28,1-.42,1.62-.42s1.17.14,1.63.42c.46.28.81.68,1.06,1.2s.37,1.13.37,1.85-.12,1.33-.37,1.85c-.25.52-.6.92-1.06,1.2-.46.28-1,.42-1.63.42ZM70.13,9.8c.49,0,.87-.18,1.15-.55.27-.37.41-.88.41-1.54s-.14-1.18-.41-1.54c-.28-.37-.66-.55-1.15-.55s-.87.19-1.14.55c-.28.37-.42.89-.42,1.55s.14,1.16.42,1.53c.28.37.66.55,1.14.55Z"/>
      <path class="cls-6" d="M74.6,11.02V2.33l1.49-.67v9.36h-1.49Z"/>
    </g>
    <g>
      <path class="cls-7" d="M40.69,21.64c-.15.76-.5,1.32-1.07,1.69-.57.37-1.34.55-2.32.55-.57,0-1.05-.06-1.44-.19s-.72-.31-.97-.56-.43-.55-.54-.92c-.11-.36-.17-.78-.17-1.26,0-.24.02-.5.05-.77s.09-.59.18-.96h1.33c-.04.21-.08.4-.1.57-.03.16-.05.31-.06.44-.01.13-.02.24-.03.34,0,.1,0,.19,0,.28,0,.27.03.5.08.69.06.2.15.36.29.49.14.13.33.22.57.29.24.06.54.09.91.09.42,0,.78-.04,1.06-.13.28-.08.51-.22.68-.39s.29-.41.36-.69c.07-.28.11-.62.11-1.01v-6.33h1.35v5.71c0,.19,0,.35.02.49.01.14.05.25.12.34.07.09.18.16.32.2.15.04.35.07.62.07v1.46h-.27c-.23,0-.43-.04-.6-.11-.18-.07-.31-.2-.42-.37h-.05Z"/>
      <path class="cls-7" d="M44.51,21.48c-.1.13-.22.23-.35.31s-.27.15-.42.2c-.15.05-.29.08-.44.1-.15.02-.29.03-.41.03h-.87c-.15,0-.26-.07-.33-.2-.07-.13-.11-.31-.11-.53s.04-.4.11-.53c.07-.13.18-.2.33-.2h.91c.13,0,.25,0,.36-.03.11-.02.21-.05.29-.09.08-.04.15-.09.19-.14.05-.06.07-.13.07-.21,0-.07,0-.16-.02-.25s-.03-.21-.05-.33-.06-.27-.09-.43c-.04-.16-.08-.35-.13-.55h1.41c.07.33.12.62.17.88.05.26.09.49.12.7,0,.03.01.07.03.12s.05.09.1.14c.05.04.12.09.21.12.09.04.21.06.36.07.11-.25.25-.52.42-.81.17-.29.36-.57.59-.84.22-.28.47-.54.75-.8.27-.26.58-.48.9-.67s.68-.35,1.05-.46c.38-.12.78-.17,1.2-.17.51,0,.95.07,1.34.22.38.15.7.35.96.61.26.26.45.57.58.93.13.36.19.76.19,1.19,0,.37-.05.68-.15.94-.1.26-.23.48-.41.65-.18.17-.39.31-.64.4-.25.1-.52.17-.82.22-.3.05-.62.08-.96.09-.34.01-.7.02-1.06.02-.76,0-1.41,0-1.96,0-.54,0-1-.01-1.37-.02s-.67-.03-.89-.05-.39-.06-.51-.1c-.14-.05-.25-.11-.35-.19s-.18-.18-.26-.31h-.03ZM50.75,18.36c-.43,0-.83.07-1.18.2-.36.13-.68.3-.97.52-.29.22-.54.46-.76.74-.22.28-.41.57-.56.87.07,0,.17,0,.31,0,.13,0,.28,0,.45,0,.17,0,.35,0,.54,0,.19,0,.37,0,.55,0h.91c.54,0,.98,0,1.31-.02.33-.01.59-.05.77-.1s.3-.13.36-.24c.06-.11.09-.26.09-.45,0-.25-.04-.48-.13-.67-.08-.19-.21-.35-.36-.48s-.35-.23-.57-.29-.48-.1-.76-.1Z"/>
      <path class="cls-7" d="M55.94,21.99v-8.14h1.35v8.14h-1.35Z"/>
      <path class="cls-7" d="M58.49,22.93c.23.08.45.14.65.19s.39.09.57.12c.18.03.35.05.51.07.16.01.32.02.47.02.29,0,.54-.03.74-.09.21-.06.38-.13.51-.23.14-.09.25-.2.32-.32s.14-.24.17-.36c0-.02.02-.06.03-.1.01-.04.02-.09.03-.13h-.57c-.84,0-1.48-.16-1.92-.49-.44-.33-.67-.8-.67-1.42,0-.29.06-.58.17-.87.12-.29.27-.55.47-.78.2-.23.43-.42.69-.56.26-.14.54-.22.83-.22.33,0,.63.08.89.24.27.16.52.4.77.74.19.26.34.55.46.88.12.33.2.68.24,1.06h1.12v1.46h-1.14c-.05.39-.16.74-.32,1.07-.16.33-.36.61-.62.85-.26.24-.57.42-.94.56-.37.13-.79.2-1.27.2-.18,0-.35,0-.53-.02s-.35-.04-.53-.07c-.18-.03-.36-.08-.55-.13-.19-.05-.39-.12-.6-.19v-1.47ZM62.39,20.28c-.05-.13-.11-.26-.18-.38-.07-.12-.14-.23-.22-.33s-.17-.17-.26-.23c-.09-.06-.19-.09-.29-.09-.11,0-.21.03-.31.09-.1.06-.18.14-.25.23-.07.09-.13.18-.17.28-.04.1-.06.19-.06.26,0,.24.1.39.3.47s.49.12.89.12h.67c-.02-.06-.03-.13-.05-.21-.02-.08-.04-.15-.06-.21Z"/>
      <path class="cls-7" d="M65.81,22.13h-.83c-.15,0-.26-.07-.33-.2-.07-.13-.11-.31-.11-.53s.04-.4.11-.53c.07-.13.18-.2.33-.2h.9c.18,0,.34,0,.46-.02.13-.01.23-.04.31-.09s.14-.12.17-.21c.04-.09.05-.23.05-.39v-2.55h1.35v2.18c0,.19,0,.35.02.48s.05.25.12.34c.07.09.18.16.32.2s.35.06.62.06v1.46h-.29c-.37,0-.68-.05-.94-.15-.26-.1-.45-.25-.58-.47h-.04c-.11.13-.23.23-.37.31-.14.08-.28.14-.42.19s-.29.08-.44.1-.29.03-.42.03ZM67.22,16.32h-1.49v-1.13h1.49v1.13ZM69.38,16.32h-1.49v-1.13h1.49v1.13Z"/>
      <path class="cls-7" d="M70.08,22.13h-.77c-.15,0-.26-.07-.33-.2-.07-.13-.11-.31-.11-.53s.04-.4.11-.53c.07-.13.18-.2.33-.2h.83c.17,0,.32,0,.45-.02s.24-.04.33-.09.16-.12.21-.21c.05-.1.07-.23.07-.4v-6.1h1.35v6.14c0,.44-.07.79-.21,1.07-.14.28-.32.49-.55.65-.23.16-.49.27-.79.33-.3.06-.6.09-.92.09Z"/>
      <path class="cls-7" d="M74.57,21.99v-8.14h1.35v8.14h-1.35Z"/>
    </g>
  </g>
</svg>